<?xml version="1.0" encoding="UTF-8"?>
<!DOCTYPE svg PUBLIC "-//W3C//DTD SVG 1.1//EN" "http://www.w3.org/Graphics/SVG/1.1/DTD/svg11.dtd">
<!-- Creator: CorelDRAW -->
<svg xmlns="http://www.w3.org/2000/svg" xml:space="preserve" width="32px" height="32px" style="shape-rendering:geometricPrecision; text-rendering:geometricPrecision; image-rendering:optimizeQuality; fill-rule:evenodd; clip-rule:evenodd"
viewBox="0 0 32 32"
 xmlns:xlink="http://www.w3.org/1999/xlink">
 <defs>
  <style type="text/css">
   <![CDATA[
    .fil1 {fill:#888888;fill-rule:nonzero}
    .fil0 {fill:#727376;fill-rule:nonzero;fill-opacity:0.701961}
    .fil2 {fill:#888888;fill-rule:nonzero;fill-opacity:0.701961}
   ]]>
  </style>
 </defs>
 <g id="Layer_x0020_1">
  <metadata id="CorelCorpID_0Corel-Layer"/>
  <g>
   <path class="fil0" d="M26.7911 32.502l0 -2.00089 0 0 0.190167 -0.00354348 0.190167 -0.0153551 0.186623 -0.0236232 0.181899 -0.0318913 0.180718 -0.0425218 0.175993 -0.0496087 0.172449 -0.0578769 0.166544 -0.066145 0.163 -0.073232 0.158276 -0.0815001 0.157094 -0.0909494 0.153551 -0.0980363 0.14292 -0.100399 0.139377 -0.111029 0.138196 -0.119297 0.127565 -0.12166 0.12166 -0.127565 0.119297 -0.138196 0.111029 -0.139377 0.100399 -0.14292 0.0980363 -0.153551 0.0909494 -0.155913 0.0815001 -0.159457 0.073232 -0.163 0.066145 -0.166544 0.0578769 -0.172449 0.0496087 -0.175993 0.0425218 -0.180718 0.0318913 -0.181899 0.0236232 -0.186623 0.0153551 -0.190167 0.00354348 -0.190167 2.00089 0 -0.00826812 0.294109 -0.022442 0.289384 -0.0354348 0.283479 -0.0507899 0.283479 -0.0637827 0.27521 -0.0755943 0.270486 -0.0909494 0.266942 -0.10158 0.261036 -0.115754 0.252768 -0.126384 0.246863 -0.138196 0.238594 -0.145283 0.229145 -0.161819 0.227964 -0.170087 0.214971 -0.175993 0.204341 -0.190167 0.200797 -0.200797 0.190167 -0.204341 0.175993 -0.214971 0.170087 -0.227964 0.161819 -0.229145 0.145283 -0.237413 0.138196 -0.248044 0.126384 -0.252768 0.115754 -0.261036 0.10158 -0.266942 0.0909494 -0.270486 0.0755943 -0.27521 0.0637827 -0.283479 0.0507899 -0.283479 0.0354348 -0.289384 0.022442 -0.294109 0.00826812 0 0zm0 -2.00089l0 2.00089 -0.0519711 -0.00118116 -0.0496087 -0.00354348 -0.0507899 -0.00708696 -0.0484276 -0.00826812 -0.0484276 -0.0118116 -0.0484276 -0.0129928 -0.0460653 -0.0153551 -0.0448841 -0.0188986 -0.0448841 -0.0200797 -0.0425218 -0.0212609 -0.0425218 -0.0248044 -0.0401595 -0.0259855 -0.0389783 -0.0271667 -0.0377971 -0.0307102 -0.036616 -0.0307102 -0.0354348 -0.0330725 -0.0330725 -0.0354348 -0.0307102 -0.036616 -0.0307102 -0.0377971 -0.0271667 -0.0389783 -0.0259855 -0.0401595 -0.0248044 -0.0425218 -0.0212609 -0.0425218 -0.0200797 -0.0448841 -0.0188986 -0.0448841 -0.0153551 -0.0460653 -0.0129928 -0.0484276 -0.0118116 -0.0484276 -0.00826812 -0.0484276 -0.00708696 -0.0507899 -0.00354348 -0.0496087 -0.00118116 -0.0519711 0.00118116 -0.0519711 0.00354348 -0.0496087 0.00708696 -0.0507899 0.00826812 -0.0484276 0.0118116 -0.0484276 0.0129928 -0.0484276 0.0153551 -0.0460653 0.0188986 -0.0448841 0.0200797 -0.0448841 0.0212609 -0.0425218 0.0248044 -0.0425218 0.0259855 -0.0401595 0.0271667 -0.0389783 0.0307102 -0.0377971 0.0307102 -0.036616 0.0330725 -0.0354348 0.0354348 -0.0330725 0.036616 -0.0307102 0.0377971 -0.0307102 0.0389783 -0.0271667 0.0401595 -0.0259855 0.0425218 -0.0248044 0.0425218 -0.0212609 0.0448841 -0.0200797 0.0448841 -0.0188986 0.0460653 -0.0153551 0.0484276 -0.0129928 0.0484276 -0.0118116 0.0484276 -0.00826812 0.0507899 -0.00708696 0.0496087 -0.00354348 0.0519711 -0.00118116zm-21.5798 0l21.5798 0 0 2.00089 -21.5798 0 0 0 0 -2.00089zm0 0l0 2.00089 -0.0519711 -0.00118116 -0.0496087 -0.00354348 -0.0507899 -0.00708696 -0.0484276 -0.00826812 -0.0484276 -0.0118116 -0.0484276 -0.0129928 -0.0460653 -0.0153551 -0.0448841 -0.0188986 -0.0448841 -0.0200797 -0.0425218 -0.0212609 -0.0425218 -0.0248044 -0.0401595 -0.0259855 -0.0389783 -0.0271667 -0.0377971 -0.0307102 -0.036616 -0.0307102 -0.0354348 -0.0330725 -0.0330725 -0.0354348 -0.0307102 -0.036616 -0.0307102 -0.0377971 -0.0271667 -0.0389783 -0.0259855 -0.0401595 -0.0248044 -0.0425218 -0.0212609 -0.0425218 -0.0200797 -0.0448841 -0.0188986 -0.0448841 -0.0153551 -0.0460653 -0.0129928 -0.0484276 -0.0118116 -0.0484276 -0.00826812 -0.0484276 -0.00708696 -0.0507899 -0.00354348 -0.0496087 -0.00118116 -0.0519711 0.00118116 -0.0519711 0.00354348 -0.0496087 0.00708696 -0.0507899 0.00826812 -0.0484276 0.0118116 -0.0484276 0.0129928 -0.0484276 0.0153551 -0.0460653 0.0188986 -0.0448841 0.0200797 -0.0448841 0.0212609 -0.0425218 0.0248044 -0.0425218 0.0259855 -0.0401595 0.0271667 -0.0389783 0.0307102 -0.0377971 0.0307102 -0.036616 0.0330725 -0.0354348 0.0354348 -0.0330725 0.036616 -0.0307102 0.0377971 -0.0307102 0.0389783 -0.0271667 0.0401595 -0.0259855 0.0425218 -0.0248044 0.0425218 -0.0212609 0.0448841 -0.0200797 0.0448841 -0.0188986 0.0460653 -0.0153551 0.0484276 -0.0129928 0.0484276 -0.0118116 0.0484276 -0.00826812 0.0507899 -0.00708696 0.0496087 -0.00354348 0.0519711 -0.00118116zm-5.71209 -3.71121l2.00089 0 0 0 0.00354348 0.190167 0.0153551 0.190167 0.0236232 0.186623 0.0318913 0.181899 0.0425218 0.180718 0.0496087 0.175993 0.0578769 0.172449 0.066145 0.166544 0.073232 0.163 0.0815001 0.159457 0.0909494 0.155913 0.0980363 0.153551 0.100399 0.14292 0.111029 0.139377 0.119297 0.138196 0.12166 0.127565 0.127565 0.12166 0.138196 0.119297 0.139377 0.111029 0.14292 0.100399 0.153551 0.0980363 0.157094 0.0909494 0.158276 0.0815001 0.163 0.073232 0.166544 0.066145 0.172449 0.0578769 0.175993 0.0496087 0.180718 0.0425218 0.181899 0.0318913 0.186623 0.0236232 0.190167 0.0153551 0.190167 0.00354348 0 2.00089 -0.294109 -0.00826812 -0.289384 -0.022442 -0.283479 -0.0354348 -0.283479 -0.0507899 -0.27521 -0.0637827 -0.270486 -0.0755943 -0.266942 -0.0909494 -0.261036 -0.10158 -0.252768 -0.115754 -0.248044 -0.126384 -0.237413 -0.138196 -0.229145 -0.145283 -0.227964 -0.161819 -0.214971 -0.170087 -0.204341 -0.175993 -0.200797 -0.190167 -0.190167 -0.200797 -0.175993 -0.204341 -0.170087 -0.214971 -0.161819 -0.227964 -0.145283 -0.229145 -0.138196 -0.238594 -0.126384 -0.246863 -0.115754 -0.252768 -0.10158 -0.261036 -0.0909494 -0.266942 -0.0755943 -0.270486 -0.0637827 -0.27521 -0.0507899 -0.283479 -0.0354348 -0.283479 -0.022442 -0.289384 -0.00826812 -0.294109 0 0zm2.00089 0l-2.00089 0 0.00118116 -0.0519711 0.00354348 -0.0496087 0.00708696 -0.0507899 0.00826812 -0.0484276 0.0118116 -0.0484276 0.0129928 -0.0484276 0.0153551 -0.0460653 0.0188986 -0.0448841 0.0200797 -0.0448841 0.0212609 -0.0425218 0.0248044 -0.0425218 0.0259855 -0.0401595 0.0271667 -0.0389783 0.0307102 -0.0377971 0.0307102 -0.036616 0.0330725 -0.0354348 0.0354348 -0.0330725 0.036616 -0.0307102 0.0377971 -0.0307102 0.0389783 -0.0271667 0.0401595 -0.0259855 0.0425218 -0.0248044 0.0425218 -0.0212609 0.0448841 -0.0200797 0.0448841 -0.0188986 0.0460653 -0.0153551 0.0484276 -0.0129928 0.0484276 -0.0118116 0.0484276 -0.00826812 0.0507899 -0.00708696 0.0496087 -0.00354348 0.0519711 -0.00118116 0.0519711 0.00118116 0.0496087 0.00354348 0.0507899 0.00708696 0.0484276 0.00826812 0.0484276 0.0118116 0.0484276 0.0129928 0.0460653 0.0153551 0.0448841 0.0188986 0.0448841 0.0200797 0.0425218 0.0212609 0.0425218 0.0248044 0.0401595 0.0259855 0.0389783 0.0271667 0.0377971 0.0307102 0.036616 0.0307102 0.0354348 0.0330725 0.0330725 0.0354348 0.0307102 0.036616 0.0307102 0.0377971 0.0271667 0.0389783 0.0259855 0.0401595 0.0248044 0.0425218 0.0212609 0.0425218 0.0200797 0.0448841 0.0188986 0.0448841 0.0153551 0.0460653 0.0129928 0.0484276 0.0118116 0.0484276 0.00826812 0.0484276 0.00708696 0.0507899 0.00354348 0.0496087 0.00118116 0.0519711zm0 -21.5798l0 21.5798 -2.00089 0 0 -21.5798 0 0 2.00089 0zm0 0l-2.00089 0 0.00118116 -0.0519711 0.00354348 -0.0496087 0.00708696 -0.0507899 0.00826812 -0.0484276 0.0118116 -0.0484276 0.0129928 -0.0484276 0.0153551 -0.0460653 0.0188986 -0.0448841 0.0200797 -0.0448841 0.0212609 -0.0425218 0.0248044 -0.0425218 0.0259855 -0.0401595 0.0271667 -0.0389783 0.0307102 -0.0377971 0.0307102 -0.036616 0.0330725 -0.0354348 0.0354348 -0.0330725 0.036616 -0.0307102 0.0377971 -0.0307102 0.0389783 -0.0271667 0.0401595 -0.0259855 0.0425218 -0.0248044 0.0425218 -0.0212609 0.0448841 -0.0200797 0.0448841 -0.0188986 0.0460653 -0.0153551 0.0484276 -0.0129928 0.0484276 -0.0118116 0.0484276 -0.00826812 0.0507899 -0.00708696 0.0496087 -0.00354348 0.0519711 -0.00118116 0.0519711 0.00118116 0.0496087 0.00354348 0.0507899 0.00708696 0.0484276 0.00826812 0.0484276 0.0118116 0.0484276 0.0129928 0.0460653 0.0153551 0.0448841 0.0188986 0.0448841 0.0200797 0.0425218 0.0212609 0.0425218 0.0248044 0.0401595 0.0259855 0.0389783 0.0271667 0.0377971 0.0307102 0.036616 0.0307102 0.0354348 0.0330725 0.0330725 0.0354348 0.0307102 0.036616 0.0307102 0.0377971 0.0271667 0.0389783 0.0259855 0.0401595 0.0248044 0.0425218 0.0212609 0.0425218 0.0200797 0.0448841 0.0188986 0.0448841 0.0153551 0.0460653 0.0129928 0.0484276 0.0118116 0.0484276 0.00826812 0.0484276 0.00708696 0.0507899 0.00354348 0.0496087 0.00118116 0.0519711zm3.71121 -5.71209l0 2.00089 0 0 -0.190167 0.00354348 -0.190167 0.0153551 -0.186623 0.0236232 -0.181899 0.0318913 -0.180718 0.0425218 -0.175993 0.0496087 -0.172449 0.0578769 -0.166544 0.066145 -0.163 0.073232 -0.158276 0.0815001 -0.157094 0.0909494 -0.153551 0.0980363 -0.14292 0.100399 -0.139377 0.111029 -0.138196 0.119297 -0.127565 0.12166 -0.12166 0.127565 -0.119297 0.138196 -0.111029 0.139377 -0.100399 0.14292 -0.0980363 0.153551 -0.0909494 0.155913 -0.0815001 0.159457 -0.073232 0.163 -0.066145 0.166544 -0.0578769 0.172449 -0.0496087 0.175993 -0.0425218 0.180718 -0.0318913 0.181899 -0.0236232 0.186623 -0.0153551 0.190167 -0.00354348 0.190167 -2.00089 0 0.00826812 -0.294109 0.022442 -0.289384 0.0354348 -0.283479 0.0507899 -0.283479 0.0637827 -0.27521 0.0755943 -0.270486 0.0909494 -0.266942 0.10158 -0.261036 0.115754 -0.252768 0.126384 -0.246863 0.138196 -0.238594 0.145283 -0.229145 0.161819 -0.227964 0.170087 -0.214971 0.175993 -0.204341 0.190167 -0.200797 0.200797 -0.190167 0.204341 -0.175993 0.214971 -0.170087 0.227964 -0.161819 0.229145 -0.145283 0.237413 -0.138196 0.248044 -0.126384 0.252768 -0.115754 0.261036 -0.10158 0.266942 -0.0909494 0.270486 -0.0755943 0.27521 -0.0637827 0.283479 -0.0507899 0.283479 -0.0354348 0.289384 -0.022442 0.294109 -0.00826812 0 0zm0 2.00089l0 -2.00089 0.0519711 0.00118116 0.0496087 0.00354348 0.0507899 0.00708696 0.0484276 0.00826812 0.0484276 0.0118116 0.0484276 0.0129928 0.0460653 0.0153551 0.0448841 0.0188986 0.0448841 0.0200797 0.0425218 0.0212609 0.0425218 0.0248044 0.0401595 0.0259855 0.0389783 0.0271667 0.0377971 0.0307102 0.036616 0.0307102 0.0354348 0.0330725 0.0330725 0.0354348 0.0307102 0.036616 0.0307102 0.0377971 0.0271667 0.0389783 0.0259855 0.0401595 0.0248044 0.0425218 0.0212609 0.0425218 0.0200797 0.0448841 0.0188986 0.0448841 0.0153551 0.0460653 0.0129928 0.0484276 0.0118116 0.0484276 0.00826812 0.0484276 0.00708696 0.0507899 0.00354348 0.0496087 0.00118116 0.0519711 -0.00118116 0.0519711 -0.00354348 0.0496087 -0.00708696 0.0507899 -0.00826812 0.0484276 -0.0118116 0.0484276 -0.0129928 0.0484276 -0.0153551 0.0460653 -0.0188986 0.0448841 -0.0200797 0.0448841 -0.0212609 0.0425218 -0.0248044 0.0425218 -0.0259855 0.0401595 -0.0271667 0.0389783 -0.0307102 0.0377971 -0.0307102 0.036616 -0.0330725 0.0354348 -0.0354348 0.0330725 -0.036616 0.0307102 -0.0377971 0.0307102 -0.0389783 0.0271667 -0.0401595 0.0259855 -0.0425218 0.0248044 -0.0425218 0.0212609 -0.0448841 0.0200797 -0.0448841 0.0188986 -0.0460653 0.0153551 -0.0484276 0.0129928 -0.0484276 0.0118116 -0.0484276 0.00826812 -0.0507899 0.00708696 -0.0496087 0.00354348 -0.0519711 0.00118116zm21.5798 0l-21.5798 0 0 -2.00089 21.5798 0 0 0 0 2.00089zm0 0l0 -2.00089 0.0519711 0.00118116 0.0496087 0.00354348 0.0507899 0.00708696 0.0484276 0.00826812 0.0484276 0.0118116 0.0484276 0.0129928 0.0460653 0.0153551 0.0448841 0.0188986 0.0448841 0.0200797 0.0425218 0.0212609 0.0425218 0.0248044 0.0401595 0.0259855 0.0389783 0.0271667 0.0377971 0.0307102 0.036616 0.0307102 0.0354348 0.0330725 0.0330725 0.0354348 0.0307102 0.036616 0.0307102 0.0377971 0.0271667 0.0389783 0.0259855 0.0401595 0.0248044 0.0425218 0.0212609 0.0425218 0.0200797 0.0448841 0.0188986 0.0448841 0.0153551 0.0460653 0.0129928 0.0484276 0.0118116 0.0484276 0.00826812 0.0484276 0.00708696 0.0507899 0.00354348 0.0496087 0.00118116 0.0519711 -0.00118116 0.0519711 -0.00354348 0.0496087 -0.00708696 0.0507899 -0.00826812 0.0484276 -0.0118116 0.0484276 -0.0129928 0.0484276 -0.0153551 0.0460653 -0.0188986 0.0448841 -0.0200797 0.0448841 -0.0212609 0.0425218 -0.0248044 0.0425218 -0.0259855 0.0401595 -0.0271667 0.0389783 -0.0307102 0.0377971 -0.0307102 0.036616 -0.0330725 0.0354348 -0.0354348 0.0330725 -0.036616 0.0307102 -0.0377971 0.0307102 -0.0389783 0.0271667 -0.0401595 0.0259855 -0.0425218 0.0248044 -0.0425218 0.0212609 -0.0448841 0.0200797 -0.0448841 0.0188986 -0.0460653 0.0153551 -0.0484276 0.0129928 -0.0484276 0.0118116 -0.0484276 0.00826812 -0.0507899 0.00708696 -0.0496087 0.00354348 -0.0519711 0.00118116zm5.71209 3.71121l-2.00089 0 0 0 -0.00354348 -0.190167 -0.0153551 -0.190167 -0.0236232 -0.186623 -0.0318913 -0.181899 -0.0425218 -0.180718 -0.0496087 -0.175993 -0.0578769 -0.172449 -0.066145 -0.166544 -0.073232 -0.163 -0.0815001 -0.159457 -0.0909494 -0.155913 -0.0980363 -0.153551 -0.100399 -0.14292 -0.111029 -0.139377 -0.119297 -0.138196 -0.12166 -0.127565 -0.127565 -0.12166 -0.138196 -0.119297 -0.139377 -0.111029 -0.14292 -0.100399 -0.153551 -0.0980363 -0.157094 -0.0909494 -0.158276 -0.0815001 -0.163 -0.073232 -0.166544 -0.066145 -0.172449 -0.0578769 -0.175993 -0.0496087 -0.180718 -0.0425218 -0.181899 -0.0318913 -0.186623 -0.0236232 -0.190167 -0.0153551 -0.190167 -0.00354348 0 -2.00089 0.294109 0.00826812 0.289384 0.022442 0.283479 0.0354348 0.283479 0.0507899 0.27521 0.0637827 0.270486 0.0755943 0.266942 0.0909494 0.261036 0.10158 0.252768 0.115754 0.248044 0.126384 0.237413 0.138196 0.229145 0.145283 0.227964 0.161819 0.214971 0.170087 0.204341 0.175993 0.200797 0.190167 0.190167 0.200797 0.175993 0.204341 0.170087 0.214971 0.161819 0.227964 0.145283 0.229145 0.138196 0.238594 0.126384 0.246863 0.115754 0.252768 0.10158 0.261036 0.0909494 0.266942 0.0755943 0.270486 0.0637827 0.27521 0.0507899 0.283479 0.0354348 0.283479 0.022442 0.289384 0.00826812 0.294109 0 0zm-2.00089 0l2.00089 0 -0.00118116 0.0519711 -0.00354348 0.0496087 -0.00708696 0.0507899 -0.00826812 0.0484276 -0.0118116 0.0484276 -0.0129928 0.0484276 -0.0153551 0.0460653 -0.0188986 0.0448841 -0.0200797 0.0448841 -0.0212609 0.0425218 -0.0248044 0.0425218 -0.0259855 0.0401595 -0.0271667 0.0389783 -0.0307102 0.0377971 -0.0307102 0.036616 -0.0330725 0.0354348 -0.0354348 0.0330725 -0.036616 0.0307102 -0.0377971 0.0307102 -0.0389783 0.0271667 -0.0401595 0.0259855 -0.0425218 0.0248044 -0.0425218 0.0212609 -0.0448841 0.0200797 -0.0448841 0.0188986 -0.0460653 0.0153551 -0.0484276 0.0129928 -0.0484276 0.0118116 -0.0484276 0.00826812 -0.0507899 0.00708696 -0.0496087 0.00354348 -0.0519711 0.00118116 -0.0519711 -0.00118116 -0.0496087 -0.00354348 -0.0507899 -0.00708696 -0.0484276 -0.00826812 -0.0484276 -0.0118116 -0.0484276 -0.0129928 -0.0460653 -0.0153551 -0.0448841 -0.0188986 -0.0448841 -0.0200797 -0.0425218 -0.0212609 -0.0425218 -0.0248044 -0.0401595 -0.0259855 -0.0389783 -0.0271667 -0.0377971 -0.0307102 -0.036616 -0.0307102 -0.0354348 -0.0330725 -0.0330725 -0.0354348 -0.0307102 -0.036616 -0.0307102 -0.0377971 -0.0271667 -0.0389783 -0.0259855 -0.0401595 -0.0248044 -0.0425218 -0.0212609 -0.0425218 -0.0200797 -0.0448841 -0.0188986 -0.0448841 -0.0153551 -0.0460653 -0.0129928 -0.0484276 -0.0118116 -0.0484276 -0.00826812 -0.0484276 -0.00708696 -0.0507899 -0.00354348 -0.0496087 -0.00118116 -0.0519711zm0 21.5798l0 -21.5798 2.00089 0 0 21.5798 0 0 -2.00089 0zm0 0l2.00089 0 -0.00118116 0.0519711 -0.00354348 0.0496087 -0.00708696 0.0507899 -0.00826812 0.0484276 -0.0118116 0.0484276 -0.0129928 0.0484276 -0.0153551 0.0460653 -0.0188986 0.0448841 -0.0200797 0.0448841 -0.0212609 0.0425218 -0.0248044 0.0425218 -0.0259855 0.0401595 -0.0271667 0.0389783 -0.0307102 0.0377971 -0.0307102 0.036616 -0.0330725 0.0354348 -0.0354348 0.0330725 -0.036616 0.0307102 -0.0377971 0.0307102 -0.0389783 0.0271667 -0.0401595 0.0259855 -0.0425218 0.0248044 -0.0425218 0.0212609 -0.0448841 0.0200797 -0.0448841 0.0188986 -0.0460653 0.0153551 -0.0484276 0.0129928 -0.0484276 0.0118116 -0.0484276 0.00826812 -0.0507899 0.00708696 -0.0496087 0.00354348 -0.0519711 0.00118116 -0.0519711 -0.00118116 -0.0496087 -0.00354348 -0.0507899 -0.00708696 -0.0484276 -0.00826812 -0.0484276 -0.0118116 -0.0484276 -0.0129928 -0.0460653 -0.0153551 -0.0448841 -0.0188986 -0.0448841 -0.0200797 -0.0425218 -0.0212609 -0.0425218 -0.0248044 -0.0401595 -0.0259855 -0.0389783 -0.0271667 -0.0377971 -0.0307102 -0.036616 -0.0307102 -0.0354348 -0.0330725 -0.0330725 -0.0354348 -0.0307102 -0.036616 -0.0307102 -0.0377971 -0.0271667 -0.0389783 -0.0259855 -0.0401595 -0.0248044 -0.0425218 -0.0212609 -0.0425218 -0.0200797 -0.0448841 -0.0188986 -0.0448841 -0.0153551 -0.0460653 -0.0129928 -0.0484276 -0.0118116 -0.0484276 -0.00826812 -0.0484276 -0.00708696 -0.0507899 -0.00354348 -0.0496087 -0.00118116 -0.0519711z"/>
  </g>
  <path class="fil1" d="M13.7345 4.30769l-1.34889 0 -0.910675 3.49978 -0.94611 -3.49978 -1.4044 0c0.279935,0.825631 0.574044,1.65599 0.85516,2.4828 0.42758,1.24258 0.694522,2.17924 0.816182,2.81943l0 3.60845 1.33353 0 0 -3.60845 1.6052 -5.30223zm3.56592 6.76096l0 0 0 -2.32689c0,-0.708696 -0.120478,-1.22723 -0.373247,-1.56386 -0.333087,-0.453566 -0.800827,-0.680348 -1.40322,-0.680348 -0.60003,0 -1.06895,0.226783 -1.40086,0.680348 -0.256312,0.336631 -0.37679,0.85516 -0.37679,1.56386l0 2.32689c0,0.705153 0.120478,1.22841 0.37679,1.56149 0.331906,0.452384 0.800827,0.680348 1.40086,0.680348 0.602392,0 1.07013,-0.227964 1.40322,-0.680348 0.252768,-0.333087 0.373247,-0.856341 0.373247,-1.56149zm-1.2036 0.226783l0 0c0,0.614203 -0.185442,0.921305 -0.572863,0.921305 -0.388602,0 -0.575225,-0.307102 -0.575225,-0.921305l0 -2.79463c0,-0.614203 0.186623,-0.920124 0.575225,-0.920124 0.387421,0 0.572863,0.305921 0.572863,0.920124l0 2.79463zm5.65422 1.92293l0 0 0 -6.64048 -1.2036 0 0 5.07545c-0.268123,0.37679 -0.519711,0.563414 -0.760667,0.563414 -0.161819,0 -0.255131,-0.095674 -0.281116,-0.282297 -0.0153551,-0.0389783 -0.0153551,-0.185442 -0.0153551,-0.46774l0 -4.88882 -1.20006 0 0 5.25144c0,0.46774 0.0413406,0.785472 0.107486,0.986269 0.119297,0.336631 0.387421,0.494906 0.774841,0.494906 0.438211,0 0.89532,-0.266942 1.37487,-0.817363l0 0.725233 1.2036 0z"/>
  <g>
   <path class="fil1" d="M25.7469 26.0375l-0.888233 -0.205522 0 0 0.0307102 -0.133471 0.0271667 -0.134652 0.0271667 -0.135833 0.0236232 -0.137015 0.0236232 -0.137015 0.0200797 -0.138196 0.0212609 -0.140558 0.0177174 -0.139377 0.0177174 -0.139377 0.0141739 -0.140558 0.0141739 -0.14292 0.0141739 -0.14292 0.0106304 -0.140558 0.0106304 -0.144102 0.00944928 -0.145283 0.00944928 -0.144102 0.00708696 -0.144102 0.0059058 -0.14292 0.00472464 -0.146464 0.0059058 -0.145283 0.00354348 -0.144102 0.00354348 -0.146464 0.00354348 -0.144102 0.00118116 -0.146464 0.00236232 -0.146464 0.00118116 -0.144102 0.00118116 -0.145283 0 -0.146464 0.00118116 -0.145283 0 -0.14292 0 -0.145283 0 -0.144102 0.911856 0 0 0.144102 0 0.145283 0 0.147645 -0.00118116 0.145283 0 0.146464 -0.00118116 0.147645 -0.00118116 0.148826 -0.00236232 0.146464 -0.00118116 0.148826 -0.00354348 0.151189 -0.00354348 0.146464 -0.00354348 0.151189 -0.0059058 0.150007 -0.00472464 0.148826 -0.00826812 0.15237 -0.00708696 0.151189 -0.00944928 0.151189 -0.00944928 0.147645 -0.0106304 0.151189 -0.0129928 0.15237 -0.0141739 0.150007 -0.0141739 0.147645 -0.0165362 0.15237 -0.0177174 0.148826 -0.0200797 0.151189 -0.0212609 0.147645 -0.022442 0.150007 -0.0259855 0.148826 -0.0259855 0.148826 -0.029529 0.147645 -0.029529 0.146464 -0.0330725 0.147645 0 0zm-0.888233 -0.205522l0.888233 0.205522 -0.0059058 0.022442 -0.00708696 0.022442 -0.00826812 0.0212609 -0.00826812 0.0212609 -0.0106304 0.0200797 -0.0106304 0.0200797 -0.0118116 0.0188986 -0.0118116 0.0177174 -0.0141739 0.0177174 -0.0141739 0.0165362 -0.0153551 0.0165362 -0.0153551 0.0153551 -0.0165362 0.0141739 -0.0165362 0.0141739 -0.0177174 0.0129928 -0.0188986 0.0118116 -0.0188986 0.0118116 -0.0188986 0.00944928 -0.0200797 0.00944928 -0.0200797 0.00826812 -0.0212609 0.00826812 -0.0212609 0.0059058 -0.0212609 0.0059058 -0.0212609 0.00354348 -0.022442 0.00354348 -0.022442 0.00236232 -0.022442 0.00118116 -0.022442 0 -0.022442 -0.00118116 -0.022442 -0.00236232 -0.0236232 -0.00354348 -0.022442 -0.00472464 -0.022442 -0.0059058 -0.022442 -0.00708696 -0.0212609 -0.00826812 -0.0212609 -0.00826812 -0.0200797 -0.0106304 -0.0200797 -0.0106304 -0.0188986 -0.0118116 -0.0177174 -0.0118116 -0.0177174 -0.0141739 -0.0165362 -0.0141739 -0.0165362 -0.0153551 -0.0153551 -0.0153551 -0.0141739 -0.0165362 -0.0141739 -0.0165362 -0.0129928 -0.0177174 -0.0118116 -0.0188986 -0.0118116 -0.0188986 -0.00944928 -0.0188986 -0.00944928 -0.0200797 -0.00826812 -0.0200797 -0.00826812 -0.0212609 -0.0059058 -0.0212609 -0.0059058 -0.0212609 -0.00354348 -0.0212609 -0.00354348 -0.022442 -0.00236232 -0.022442 -0.00118116 -0.022442 0 -0.022442 0.00118116 -0.022442 0.00236232 -0.022442 0.00354348 -0.0236232 0.00472464 -0.022442zm-1.63473 2.49107l-0.10158 -0.907131 0 0 0.0767754 -0.00944928 0.0791378 -0.0141739 0.0767754 -0.0165362 0.0744131 -0.0188986 0.0708696 -0.0212609 0.073232 -0.0259855 0.0744131 -0.0283479 0.0720508 -0.0318913 0.066145 -0.0307102 0.066145 -0.036616 0.0685073 -0.0389783 0.0649638 -0.0413406 0.0614203 -0.0425218 0.0637827 -0.0484276 0.0626015 -0.0484276 0.0555145 -0.0484276 0.0555145 -0.0519711 0.0531522 -0.0543334 0.0531522 -0.059058 0.0507899 -0.0602392 0.0484276 -0.0614203 0.0460653 -0.0637827 0.0437029 -0.066145 0.0401595 -0.0649638 0.0401595 -0.0708696 0.036616 -0.0708696 0.0330725 -0.0720508 0.0307102 -0.0720508 0.0283479 -0.0767754 0.0259855 -0.0767754 0.022442 -0.0803189 0.0212609 -0.0803189 0.888233 0.205522 -0.0283479 0.113391 -0.0318913 0.111029 -0.0377971 0.11221 -0.0401595 0.107486 -0.0448841 0.107486 -0.0496087 0.105123 -0.0531522 0.10158 -0.0543334 0.0968552 -0.059058 0.0980363 -0.0649638 0.0944928 -0.0649638 0.0897682 -0.0696885 0.0897682 -0.0720508 0.0838624 -0.0744131 0.0826812 -0.0791378 0.0803189 -0.0815001 0.0779566 -0.0862247 0.0744131 -0.0862247 0.0696885 -0.0874059 0.0649638 -0.0921305 0.0637827 -0.095674 0.0602392 -0.0944928 0.0555145 -0.0992175 0.0531522 -0.103942 0.0496087 -0.102761 0.0437029 -0.102761 0.0401595 -0.106304 0.0377971 -0.111029 0.0330725 -0.109848 0.0283479 -0.11221 0.0236232 -0.11221 0.0188986 -0.114573 0.0165362 0 0zm-0.10158 -0.907131l0.10158 0.907131 -0.0236232 0.00236232 -0.022442 0 -0.0236232 0 -0.022442 -0.00118116 -0.022442 -0.00354348 -0.022442 -0.00354348 -0.022442 -0.00472464 -0.0212609 -0.0059058 -0.0212609 -0.00708696 -0.0200797 -0.00708696 -0.0200797 -0.00944928 -0.0200797 -0.00944928 -0.0188986 -0.0106304 -0.0188986 -0.0118116 -0.0188986 -0.0118116 -0.0165362 -0.0129928 -0.0177174 -0.0141739 -0.0153551 -0.0153551 -0.0153551 -0.0153551 -0.0153551 -0.0165362 -0.0129928 -0.0165362 -0.0129928 -0.0177174 -0.0129928 -0.0188986 -0.0106304 -0.0188986 -0.0106304 -0.0200797 -0.00944928 -0.0200797 -0.00826812 -0.0200797 -0.00826812 -0.022442 -0.0059058 -0.0212609 -0.0059058 -0.022442 -0.00354348 -0.022442 -0.00354348 -0.0236232 -0.00236232 -0.0236232 0 -0.022442 0 -0.0236232 0.00118116 -0.022442 0.00354348 -0.022442 0.00354348 -0.022442 0.00472464 -0.022442 0.0059058 -0.0212609 0.00708696 -0.0212609 0.00708696 -0.0200797 0.00944928 -0.0200797 0.00944928 -0.0200797 0.0106304 -0.0188986 0.0118116 -0.0188986 0.0118116 -0.0188986 0.0129928 -0.0165362 0.0141739 -0.0177174 0.0153551 -0.0153551 0.0153551 -0.0153551 0.0165362 -0.0153551 0.0165362 -0.0129928 0.0177174 -0.0129928 0.0188986 -0.0129928 0.0188986 -0.0106304 0.0200797 -0.0106304 0.0200797 -0.00944928 0.0200797 -0.00826812 0.022442 -0.00826812 0.0212609 -0.0059058 0.022442 -0.0059058 0.022442 -0.00354348 0.0236232 -0.00354348zm-7.32556 1.18234l0 -0.911856 0 0 0.230326 0 0.231507 0 0.230326 0 0.230326 0 0.230326 -0.00118116 0.231507 0 0.229145 -0.00118116 0.230326 -0.00118116 0.229145 -0.00236232 0.231507 -0.00236232 0.229145 -0.00236232 0.230326 -0.00354348 0.230326 -0.00354348 0.229145 -0.00472464 0.230326 -0.00472464 0.227964 -0.0059058 0.229145 -0.00708696 0.229145 -0.00826812 0.229145 -0.00826812 0.227964 -0.00944928 0.229145 -0.00944928 0.227964 -0.0118116 0.229145 -0.0129928 0.227964 -0.0129928 0.226783 -0.0153551 0.226783 -0.0165362 0.227964 -0.0177174 0.226783 -0.0188986 0.227964 -0.0188986 0.225602 -0.0212609 0.225602 -0.0236232 0.226783 -0.0248044 0.10158 0.907131 -0.231507 0.0248044 -0.232689 0.0236232 -0.232689 0.0212609 -0.232689 0.0212609 -0.231507 0.0188986 -0.232689 0.0177174 -0.231507 0.0165362 -0.23387 0.0153551 -0.232689 0.0129928 -0.231507 0.0129928 -0.232689 0.0118116 -0.23387 0.0118116 -0.232689 0.00944928 -0.231507 0.00826812 -0.231507 0.00826812 -0.23387 0.00708696 -0.232689 0.0059058 -0.232689 0.00472464 -0.231507 0.00472464 -0.232689 0.00354348 -0.232689 0.00354348 -0.231507 0.00236232 -0.231507 0.00236232 -0.231507 0.00236232 -0.232689 0.00118116 -0.231507 0.00118116 -0.231507 0 -0.230326 0.00118116 -0.232689 0 -0.230326 0 -0.231507 0 -0.230326 0 0 0zm0 -0.911856l0 0.911856 -0.0236232 -0.00118116 -0.022442 -0.00118116 -0.0236232 -0.00236232 -0.022442 -0.00472464 -0.0212609 -0.00472464 -0.022442 -0.0059058 -0.0212609 -0.00708696 -0.0200797 -0.00826812 -0.0200797 -0.00944928 -0.0200797 -0.0106304 -0.0188986 -0.0106304 -0.0188986 -0.0118116 -0.0177174 -0.0129928 -0.0165362 -0.0129928 -0.0165362 -0.0141739 -0.0165362 -0.0153551 -0.0153551 -0.0165362 -0.0141739 -0.0165362 -0.0129928 -0.0165362 -0.0129928 -0.0177174 -0.0118116 -0.0188986 -0.0106304 -0.0188986 -0.0106304 -0.0200797 -0.00944928 -0.0200797 -0.00826812 -0.0200797 -0.00708696 -0.0212609 -0.0059058 -0.022442 -0.00472464 -0.0212609 -0.00472464 -0.022442 -0.00236232 -0.0236232 -0.00118116 -0.022442 -0.00118116 -0.0236232 0.00118116 -0.0236232 0.00118116 -0.022442 0.00236232 -0.0236232 0.00472464 -0.022442 0.00472464 -0.0212609 0.0059058 -0.022442 0.00708696 -0.0212609 0.00826812 -0.0200797 0.00944928 -0.0200797 0.0106304 -0.0200797 0.0106304 -0.0188986 0.0118116 -0.0188986 0.0129928 -0.0177174 0.0129928 -0.0165362 0.0141739 -0.0165362 0.0153551 -0.0165362 0.0165362 -0.0153551 0.0165362 -0.0141739 0.0165362 -0.0129928 0.0177174 -0.0129928 0.0188986 -0.0118116 0.0188986 -0.0106304 0.0200797 -0.0106304 0.0200797 -0.00944928 0.0200797 -0.00826812 0.0212609 -0.00708696 0.022442 -0.0059058 0.0212609 -0.00472464 0.022442 -0.00472464 0.0236232 -0.00236232 0.022442 -0.00118116 0.0236232 -0.00118116zm-7.42832 0.636646l0.10158 -0.907131 0 0 0.226783 0.0248044 0.225602 0.0236232 0.225602 0.0212609 0.227964 0.0188986 0.226783 0.0188986 0.227964 0.0177174 0.226783 0.0165362 0.226783 0.0153551 0.227964 0.0129928 0.229145 0.0129928 0.227964 0.0118116 0.227964 0.00944928 0.229145 0.00944928 0.229145 0.00826812 0.229145 0.00826812 0.229145 0.00708696 0.227964 0.0059058 0.230326 0.00472464 0.229145 0.00472464 0.230326 0.00354348 0.229145 0.00354348 0.230326 0.00236232 0.231507 0.00236232 0.229145 0.00236232 0.230326 0.00118116 0.230326 0.00118116 0.230326 0 0.231507 0.00118116 0.229145 0 0.231507 0 0.231507 0 0.230326 0 0 0.911856 -0.230326 0 -0.231507 0 -0.231507 0 -0.231507 0 -0.231507 -0.00118116 -0.230326 0 -0.232689 -0.00118116 -0.232689 -0.00118116 -0.231507 -0.00236232 -0.231507 -0.00236232 -0.232689 -0.00236232 -0.231507 -0.00354348 -0.232689 -0.00354348 -0.231507 -0.00472464 -0.232689 -0.00472464 -0.232689 -0.0059058 -0.23387 -0.00708696 -0.231507 -0.00826812 -0.231507 -0.00826812 -0.23387 -0.00944928 -0.232689 -0.0118116 -0.232689 -0.0118116 -0.231507 -0.0129928 -0.232689 -0.0129928 -0.23387 -0.0153551 -0.231507 -0.0165362 -0.232689 -0.0177174 -0.231507 -0.0188986 -0.232689 -0.0212609 -0.232689 -0.0212609 -0.232689 -0.0236232 -0.231507 -0.0248044 0 0zm0.10158 -0.907131l-0.10158 0.907131 -0.0236232 -0.00354348 -0.022442 -0.00354348 -0.022442 -0.0059058 -0.0212609 -0.0059058 -0.022442 -0.00826812 -0.0200797 -0.00826812 -0.0200797 -0.00944928 -0.0200797 -0.0106304 -0.0188986 -0.0106304 -0.0188986 -0.0129928 -0.0177174 -0.0129928 -0.0165362 -0.0129928 -0.0165362 -0.0153551 -0.0153551 -0.0153551 -0.0153551 -0.0153551 -0.0141739 -0.0177174 -0.0129928 -0.0165362 -0.0118116 -0.0188986 -0.0118116 -0.0188986 -0.0106304 -0.0188986 -0.00944928 -0.0200797 -0.00944928 -0.0200797 -0.00708696 -0.0200797 -0.00708696 -0.0212609 -0.0059058 -0.0212609 -0.00472464 -0.022442 -0.00354348 -0.022442 -0.00354348 -0.022442 -0.00118116 -0.022442 0 -0.0236232 0 -0.022442 0.00236232 -0.0236232 0.00354348 -0.0236232 0.00354348 -0.022442 0.0059058 -0.022442 0.0059058 -0.0212609 0.00826812 -0.022442 0.00826812 -0.0200797 0.00944928 -0.0200797 0.0106304 -0.0200797 0.0106304 -0.0188986 0.0129928 -0.0188986 0.0129928 -0.0177174 0.0129928 -0.0165362 0.0153551 -0.0165362 0.0153551 -0.0153551 0.0153551 -0.0153551 0.0177174 -0.0141739 0.0165362 -0.0129928 0.0188986 -0.0118116 0.0188986 -0.0118116 0.0188986 -0.0106304 0.0200797 -0.00944928 0.0200797 -0.00944928 0.0200797 -0.00708696 0.0212609 -0.00708696 0.0212609 -0.0059058 0.022442 -0.00472464 0.022442 -0.00354348 0.022442 -0.00354348 0.022442 -0.00118116 0.0236232 0 0.022442 0 0.0236232 0.00236232zm-2.62454 -1.3796l0.888233 -0.20316 0 -0.00118116 0.0212609 0.0803189 0.022442 0.0803189 0.0259855 0.0767754 0.0283479 0.0767754 0.0307102 0.0720508 0.0330725 0.0720508 0.036616 0.0708696 0.0401595 0.0708696 0.0401595 0.0649638 0.0437029 0.066145 0.0460653 0.0637827 0.0484276 0.0614203 0.0507899 0.0602392 0.0531522 0.059058 0.0531522 0.0543334 0.0555145 0.0519711 0.0555145 0.0484276 0.0626015 0.0484276 0.0637827 0.0484276 0.0614203 0.0425218 0.0649638 0.0413406 0.0685073 0.0389783 0.066145 0.036616 0.066145 0.0307102 0.0720508 0.0318913 0.0744131 0.0283479 0.073232 0.0259855 0.0708696 0.0212609 0.0744131 0.0188986 0.0767754 0.0165362 0.0791378 0.0141739 0.0767754 0.00944928 -0.10158 0.907131 -0.114573 -0.0165362 -0.11221 -0.0188986 -0.11221 -0.0236232 -0.109848 -0.0283479 -0.111029 -0.0330725 -0.106304 -0.0377971 -0.102761 -0.0401595 -0.102761 -0.0437029 -0.103942 -0.0496087 -0.0992175 -0.0531522 -0.0944928 -0.0555145 -0.095674 -0.0602392 -0.0921305 -0.0637827 -0.0874059 -0.0649638 -0.0862247 -0.0696885 -0.0862247 -0.0744131 -0.0815001 -0.0779566 -0.0791378 -0.0803189 -0.0744131 -0.0826812 -0.0720508 -0.0838624 -0.0696885 -0.0897682 -0.0649638 -0.0897682 -0.0649638 -0.0944928 -0.059058 -0.0980363 -0.0543334 -0.0968552 -0.0531522 -0.10158 -0.0496087 -0.105123 -0.0448841 -0.107486 -0.0401595 -0.107486 -0.0377971 -0.11221 -0.0318913 -0.111029 -0.0283479 -0.113391 0 -0.00118116zm0.888233 -0.204341l-0.888233 0.205522 -0.00472464 -0.022442 -0.00354348 -0.0236232 -0.00236232 -0.022442 -0.00118116 -0.022442 0 -0.022442 0.00118116 -0.022442 0.00236232 -0.022442 0.00354348 -0.022442 0.00354348 -0.0212609 0.0059058 -0.0212609 0.0059058 -0.0212609 0.00826812 -0.0212609 0.00826812 -0.0200797 0.00944928 -0.0200797 0.00944928 -0.0188986 0.0118116 -0.0188986 0.0118116 -0.0188986 0.0129928 -0.0177174 0.0141739 -0.0165362 0.0141739 -0.0165362 0.0153551 -0.0153551 0.0165362 -0.0153551 0.0165362 -0.0141739 0.0177174 -0.0141739 0.0177174 -0.0118116 0.0188986 -0.0118116 0.0200797 -0.0106304 0.0200797 -0.0106304 0.0212609 -0.00826812 0.0212609 -0.00826812 0.022442 -0.00708696 0.022442 -0.0059058 0.022442 -0.00472464 0.0236232 -0.00354348 0.022442 -0.00236232 0.022442 -0.00118116 0.022442 0 0.022442 0.00118116 0.022442 0.00236232 0.022442 0.00354348 0.0212609 0.00354348 0.0212609 0.0059058 0.0212609 0.0059058 0.0212609 0.00826812 0.0200797 0.00826812 0.0200797 0.00944928 0.0188986 0.00944928 0.0188986 0.0118116 0.0188986 0.0118116 0.0177174 0.0129928 0.0165362 0.0141739 0.0165362 0.0141739 0.0153551 0.0153551 0.0153551 0.0165362 0.0141739 0.0165362 0.0141739 0.0177174 0.0118116 0.0177174 0.0118116 0.0188986 0.0106304 0.0200797 0.0106304 0.0200797 0.00826812 0.0212609 0.00826812 0.0212609 0.00708696 0.022442 0.0059058 0.022442zm-1.24258 -4.55574l0.911856 0 0 0 0 0.144102 0 0.145283 0 0.14292 0.00118116 0.145283 0 0.146464 0.00118116 0.145283 0.00118116 0.144102 0.00236232 0.146464 0.00118116 0.146464 0.00354348 0.144102 0.00354348 0.146464 0.00354348 0.145283 0.00472464 0.144102 0.0059058 0.144102 0.0059058 0.145283 0.00708696 0.146464 0.00826812 0.141739 0.0106304 0.14292 0.0106304 0.146464 0.0118116 0.141739 0.0118116 0.14292 0.0141739 0.140558 0.0153551 0.141739 0.0165362 0.140558 0.0177174 0.138196 0.0212609 0.140558 0.0200797 0.139377 0.022442 0.135833 0.0248044 0.137015 0.0259855 0.135833 0.0283479 0.134652 0.029529 0.134652 -0.888233 0.20316 -0.0318913 -0.146464 -0.0307102 -0.146464 -0.0283479 -0.147645 -0.0271667 -0.148826 -0.0248044 -0.150007 -0.022442 -0.148826 -0.0212609 -0.147645 -0.0200797 -0.15237 -0.0165362 -0.147645 -0.0177174 -0.151189 -0.0141739 -0.150007 -0.0141739 -0.150007 -0.0118116 -0.151189 -0.0106304 -0.148826 -0.0106304 -0.150007 -0.00826812 -0.153551 -0.00708696 -0.148826 -0.00826812 -0.150007 -0.0059058 -0.151189 -0.00472464 -0.151189 -0.00354348 -0.150007 -0.00354348 -0.146464 -0.00354348 -0.151189 -0.00118116 -0.148826 -0.00236232 -0.146464 -0.00118116 -0.148826 -0.00118116 -0.147645 0 -0.146464 -0.00118116 -0.145283 0 -0.147645 0 -0.145283 0 -0.144102 0 0zm0.911856 0l-0.911856 0 0.00118116 -0.0236232 0.00118116 -0.022442 0.00236232 -0.0236232 0.00472464 -0.022442 0.00472464 -0.0212609 0.0059058 -0.022442 0.00708696 -0.0212609 0.00826812 -0.0200797 0.00944928 -0.0200797 0.0106304 -0.0200797 0.0106304 -0.0188986 0.0118116 -0.0188986 0.0129928 -0.0177174 0.0129928 -0.0165362 0.0141739 -0.0165362 0.0153551 -0.0165362 0.0165362 -0.0153551 0.0165362 -0.0141739 0.0165362 -0.0129928 0.0177174 -0.0129928 0.0188986 -0.0118116 0.0188986 -0.0106304 0.0200797 -0.0106304 0.0200797 -0.00944928 0.0200797 -0.00826812 0.0212609 -0.00708696 0.022442 -0.0059058 0.0212609 -0.00472464 0.022442 -0.00472464 0.0236232 -0.00236232 0.022442 -0.00118116 0.0236232 -0.00118116 0.0236232 0.00118116 0.022442 0.00118116 0.0236232 0.00236232 0.022442 0.00472464 0.0212609 0.00472464 0.022442 0.0059058 0.0212609 0.00708696 0.0200797 0.00826812 0.0200797 0.00944928 0.0200797 0.0106304 0.0188986 0.0106304 0.0188986 0.0118116 0.0177174 0.0129928 0.0165362 0.0129928 0.0165362 0.0141739 0.0165362 0.0153551 0.0153551 0.0165362 0.0141739 0.0165362 0.0129928 0.0165362 0.0129928 0.0177174 0.0118116 0.0188986 0.0106304 0.0188986 0.0106304 0.0200797 0.00944928 0.0200797 0.00826812 0.0200797 0.00708696 0.0212609 0.0059058 0.022442 0.00472464 0.0212609 0.00472464 0.022442 0.00236232 0.0236232 0.00118116 0.022442 0.00118116 0.0236232zm-0.552783 -4.7589l0.888233 0.20316 0 0.00118116 -0.029529 0.133471 -0.0283479 0.134652 -0.0259855 0.137015 -0.0248044 0.135833 -0.022442 0.137015 -0.0212609 0.140558 -0.0212609 0.138196 -0.0177174 0.139377 -0.0177174 0.140558 -0.0141739 0.140558 -0.0153551 0.14292 -0.0118116 0.140558 -0.0118116 0.14292 -0.0106304 0.145283 -0.0106304 0.14292 -0.00826812 0.144102 -0.00826812 0.144102 -0.00472464 0.14292 -0.0059058 0.146464 -0.0059058 0.144102 -0.00354348 0.144102 -0.00354348 0.147645 -0.00354348 0.145283 -0.00236232 0.145283 -0.00236232 0.145283 -0.00118116 0.144102 -0.00118116 0.145283 0 0.146464 -0.00118116 0.145283 0 0.14292 0 0.145283 0 0.144102 -0.911856 0 0 -0.144102 0 -0.145283 0 -0.147645 0.00118116 -0.145283 0 -0.146464 0.00118116 -0.147645 0.00118116 -0.148826 0.00236232 -0.147645 0.00236232 -0.150007 0.00354348 -0.147645 0.00354348 -0.147645 0.00354348 -0.151189 0.0059058 -0.151189 0.0059058 -0.146464 0.00708696 -0.15237 0.00826812 -0.151189 0.00826812 -0.151189 0.0106304 -0.150007 0.0106304 -0.147645 0.0118116 -0.15237 0.0141739 -0.150007 0.0153551 -0.150007 0.0165362 -0.150007 0.0177174 -0.150007 0.0200797 -0.151189 0.0212609 -0.150007 0.0236232 -0.147645 0.0248044 -0.148826 0.0271667 -0.147645 0.0283479 -0.148826 0.0307102 -0.146464 0.0318913 -0.147645 0 0.00118116zm0.888233 0.204341l-0.888233 -0.205522 0.0059058 -0.022442 0.00708696 -0.022442 0.00826812 -0.0212609 0.00826812 -0.0212609 0.0106304 -0.0200797 0.0106304 -0.0200797 0.0118116 -0.0188986 0.0118116 -0.0177174 0.0141739 -0.0177174 0.0141739 -0.0165362 0.0153551 -0.0165362 0.0153551 -0.0153551 0.0165362 -0.0141739 0.0165362 -0.0141739 0.0177174 -0.0129928 0.0188986 -0.0118116 0.0188986 -0.0118116 0.0188986 -0.00944928 0.0200797 -0.00944928 0.0200797 -0.00826812 0.0212609 -0.00826812 0.0212609 -0.0059058 0.0212609 -0.0059058 0.0212609 -0.00354348 0.022442 -0.00354348 0.022442 -0.00236232 0.022442 -0.00118116 0.022442 0 0.022442 0.00118116 0.022442 0.00236232 0.0236232 0.00354348 0.022442 0.00472464 0.022442 0.0059058 0.022442 0.00708696 0.0212609 0.00826812 0.0212609 0.00826812 0.0200797 0.0106304 0.0200797 0.0106304 0.0188986 0.0118116 0.0177174 0.0118116 0.0177174 0.0141739 0.0165362 0.0141739 0.0165362 0.0153551 0.0153551 0.0153551 0.0141739 0.0165362 0.0141739 0.0165362 0.0129928 0.0177174 0.0118116 0.0188986 0.0118116 0.0188986 0.00944928 0.0188986 0.00944928 0.0200797 0.00826812 0.0200797 0.00826812 0.0212609 0.0059058 0.0212609 0.0059058 0.0212609 0.00354348 0.0212609 0.00354348 0.022442 0.00236232 0.022442 0.00118116 0.022442 0 0.022442 -0.00118116 0.022442 -0.00236232 0.022442 -0.00354348 0.0236232 -0.00472464 0.022442zm1.63354 -2.49107l0.10158 0.907131 0 0 -0.0767754 0.00944928 -0.0791378 0.0141739 -0.0755943 0.0165362 -0.0755943 0.0188986 -0.073232 0.022442 -0.073232 0.0248044 -0.0708696 0.0271667 -0.0685073 0.029529 -0.0708696 0.0354348 -0.0673261 0.0342537 -0.066145 0.0389783 -0.0649638 0.0413406 -0.0637827 0.0448841 -0.0614203 0.0448841 -0.059058 0.0484276 -0.0602392 0.0519711 -0.0566957 0.0519711 -0.0531522 0.0555145 -0.0519711 0.0555145 -0.0507899 0.0614203 -0.0484276 0.0602392 -0.0437029 0.0614203 -0.0448841 0.0696885 -0.0425218 0.0673261 -0.0377971 0.066145 -0.0354348 0.0708696 -0.0342537 0.0744131 -0.0307102 0.0720508 -0.0283479 0.0767754 -0.0259855 0.0767754 -0.022442 0.0803189 -0.0212609 0.0791378 -0.888233 -0.20316 0.0283479 -0.114573 0.0318913 -0.111029 0.0377971 -0.11221 0.0401595 -0.107486 0.0448841 -0.107486 0.0484276 -0.102761 0.0519711 -0.10158 0.0566957 -0.10158 0.059058 -0.095674 0.0614203 -0.0909494 0.0673261 -0.0944928 0.0696885 -0.088587 0.0720508 -0.0850436 0.0755943 -0.0838624 0.0791378 -0.0791378 0.0826812 -0.0779566 0.0815001 -0.0708696 0.0874059 -0.0720508 0.0897682 -0.066145 0.0921305 -0.0637827 0.0933117 -0.0578769 0.0968552 -0.0578769 0.100399 -0.0531522 0.0992175 -0.0472464 0.103942 -0.0460653 0.106304 -0.0413406 0.106304 -0.036616 0.108667 -0.0318913 0.111029 -0.0283479 0.111029 -0.0236232 0.11221 -0.0188986 0.114573 -0.0165362 0 0zm0.10158 0.907131l-0.10158 -0.907131 0.0236232 -0.00236232 0.022442 0 0.0236232 0 0.022442 0.00118116 0.022442 0.00354348 0.022442 0.00354348 0.022442 0.00472464 0.0212609 0.0059058 0.0212609 0.00708696 0.0200797 0.00708696 0.0200797 0.00944928 0.0200797 0.00944928 0.0188986 0.0106304 0.0188986 0.0118116 0.0188986 0.0118116 0.0165362 0.0129928 0.0177174 0.0141739 0.0153551 0.0153551 0.0153551 0.0153551 0.0153551 0.0165362 0.0129928 0.0165362 0.0129928 0.0177174 0.0129928 0.0188986 0.0106304 0.0188986 0.0106304 0.0200797 0.00944928 0.0200797 0.00826812 0.0200797 0.00826812 0.022442 0.0059058 0.0212609 0.0059058 0.022442 0.00354348 0.022442 0.00354348 0.0236232 0.00236232 0.0236232 0 0.022442 0 0.0236232 -0.00118116 0.022442 -0.00354348 0.022442 -0.00354348 0.022442 -0.00472464 0.022442 -0.0059058 0.0212609 -0.00708696 0.0212609 -0.00708696 0.0200797 -0.00944928 0.0200797 -0.00944928 0.0200797 -0.0106304 0.0188986 -0.0118116 0.0188986 -0.0118116 0.0188986 -0.0129928 0.0165362 -0.0141739 0.0177174 -0.0153551 0.0153551 -0.0153551 0.0153551 -0.0165362 0.0153551 -0.0165362 0.0129928 -0.0177174 0.0129928 -0.0188986 0.0129928 -0.0188986 0.0106304 -0.0200797 0.0106304 -0.0200797 0.00944928 -0.0200797 0.00826812 -0.022442 0.00826812 -0.0212609 0.0059058 -0.022442 0.0059058 -0.022442 0.00354348 -0.0236232 0.00354348zm7.32674 -1.18352l0 0.911856 0 0 -0.230326 0 -0.231507 0 -0.230326 0 -0.230326 0 -0.229145 0.00118116 -0.232689 0.00118116 -0.230326 0 -0.229145 0.00236232 -0.231507 0.00118116 -0.229145 0.00236232 -0.230326 0.00236232 -0.229145 0.00354348 -0.230326 0.00472464 -0.230326 0.00354348 -0.227964 0.0059058 -0.230326 0.0059058 -0.229145 0.00708696 -0.227964 0.00708696 -0.229145 0.00944928 -0.229145 0.00944928 -0.229145 0.00944928 -0.227964 0.0106304 -0.226783 0.0129928 -0.227964 0.0141739 -0.229145 0.0153551 -0.227964 0.0153551 -0.226783 0.0177174 -0.225602 0.0177174 -0.226783 0.0212609 -0.227964 0.0212609 -0.225602 0.0236232 -0.226783 0.0248044 -0.10158 -0.907131 0.231507 -0.0248044 0.232689 -0.0236232 0.232689 -0.0212609 0.231507 -0.0212609 0.232689 -0.0200797 0.23387 -0.0177174 0.232689 -0.0153551 0.231507 -0.0153551 0.232689 -0.0141739 0.23387 -0.0129928 0.232689 -0.0106304 0.231507 -0.0118116 0.231507 -0.00944928 0.23387 -0.00944928 0.232689 -0.00708696 0.231507 -0.00708696 0.232689 -0.0059058 0.232689 -0.0059058 0.232689 -0.00354348 0.230326 -0.00472464 0.23387 -0.00354348 0.232689 -0.00236232 0.231507 -0.00236232 0.231507 -0.00118116 0.231507 -0.00236232 0.232689 0 0.230326 -0.00118116 0.231507 -0.00118116 0.232689 0 0.230326 0 0.231507 0 0.230326 0 0 0zm0 0.911856l0 -0.911856 0.0236232 0.00118116 0.022442 0.00118116 0.0236232 0.00236232 0.022442 0.00472464 0.0212609 0.00472464 0.022442 0.0059058 0.0212609 0.00708696 0.0200797 0.00826812 0.0200797 0.00944928 0.0200797 0.0106304 0.0188986 0.0106304 0.0188986 0.0118116 0.0177174 0.0129928 0.0165362 0.0129928 0.0165362 0.0141739 0.0165362 0.0153551 0.0153551 0.0165362 0.0141739 0.0165362 0.0129928 0.0165362 0.0129928 0.0177174 0.0118116 0.0188986 0.0106304 0.0188986 0.0106304 0.0200797 0.00944928 0.0200797 0.00826812 0.0200797 0.00708696 0.0212609 0.0059058 0.022442 0.00472464 0.0212609 0.00472464 0.022442 0.00236232 0.0236232 0.00118116 0.022442 0.00118116 0.0236232 -0.00118116 0.0236232 -0.00118116 0.022442 -0.00236232 0.0236232 -0.00472464 0.022442 -0.00472464 0.0212609 -0.0059058 0.022442 -0.00708696 0.0212609 -0.00826812 0.0200797 -0.00944928 0.0200797 -0.0106304 0.0200797 -0.0106304 0.0188986 -0.0118116 0.0188986 -0.0129928 0.0177174 -0.0129928 0.0165362 -0.0141739 0.0165362 -0.0153551 0.0165362 -0.0165362 0.0153551 -0.0165362 0.0141739 -0.0165362 0.0129928 -0.0177174 0.0129928 -0.0188986 0.0118116 -0.0188986 0.0106304 -0.0200797 0.0106304 -0.0200797 0.00944928 -0.0200797 0.00826812 -0.0212609 0.00708696 -0.022442 0.0059058 -0.0212609 0.00472464 -0.022442 0.00472464 -0.0236232 0.00236232 -0.022442 0.00118116 -0.0236232 0.00118116zm7.42832 -0.635464l-0.10158 0.907131 0 0 -0.226783 -0.0248044 -0.225602 -0.0236232 -0.227964 -0.0212609 -0.226783 -0.0212609 -0.225602 -0.0177174 -0.226783 -0.0177174 -0.227964 -0.0153551 -0.229145 -0.0153551 -0.227964 -0.0141739 -0.226783 -0.0129928 -0.227964 -0.0106304 -0.229145 -0.00944928 -0.229145 -0.00944928 -0.229145 -0.00944928 -0.227964 -0.00708696 -0.229145 -0.00708696 -0.230326 -0.0059058 -0.227964 -0.0059058 -0.230326 -0.00354348 -0.230326 -0.00472464 -0.229145 -0.00354348 -0.230326 -0.00236232 -0.229145 -0.00236232 -0.231507 -0.00118116 -0.229145 -0.00236232 -0.230326 0 -0.232689 -0.00118116 -0.229145 -0.00118116 -0.230326 0 -0.230326 0 -0.231507 0 -0.230326 0 0 -0.911856 0.230326 0 0.231507 0 0.230326 0 0.232689 0 0.231507 0.00118116 0.230326 0.00118116 0.232689 0 0.231507 0.00236232 0.231507 0.00118116 0.231507 0.00236232 0.232689 0.00236232 0.23387 0.00354348 0.230326 0.00472464 0.232689 0.00354348 0.232689 0.0059058 0.232689 0.0059058 0.231507 0.00708696 0.232689 0.00708696 0.23387 0.00944928 0.231507 0.00944928 0.231507 0.0118116 0.232689 0.0106304 0.23387 0.0129928 0.232689 0.0141739 0.231507 0.0153551 0.232689 0.0153551 0.23387 0.0177174 0.232689 0.0200797 0.231507 0.0212609 0.232689 0.0212609 0.232689 0.0236232 0.231507 0.0248044 0 0zm-0.10158 0.907131l0.10158 -0.907131 0.0236232 0.00354348 0.022442 0.00354348 0.022442 0.0059058 0.0212609 0.0059058 0.022442 0.00826812 0.0200797 0.00826812 0.0200797 0.00944928 0.0200797 0.0106304 0.0188986 0.0106304 0.0188986 0.0129928 0.0177174 0.0129928 0.0165362 0.0129928 0.0165362 0.0153551 0.0153551 0.0153551 0.0153551 0.0153551 0.0141739 0.0177174 0.0129928 0.0165362 0.0118116 0.0188986 0.0118116 0.0188986 0.0106304 0.0188986 0.00944928 0.0200797 0.00944928 0.0200797 0.00708696 0.0200797 0.00708696 0.0212609 0.0059058 0.0212609 0.00472464 0.022442 0.00354348 0.022442 0.00354348 0.022442 0.00118116 0.022442 0 0.0236232 0 0.022442 -0.00236232 0.0236232 -0.00354348 0.0236232 -0.00354348 0.022442 -0.0059058 0.022442 -0.0059058 0.0212609 -0.00826812 0.022442 -0.00826812 0.0200797 -0.00944928 0.0200797 -0.0106304 0.0200797 -0.0106304 0.0188986 -0.0129928 0.0188986 -0.0129928 0.0177174 -0.0129928 0.0165362 -0.0153551 0.0165362 -0.0153551 0.0153551 -0.0153551 0.0153551 -0.0177174 0.0141739 -0.0165362 0.0129928 -0.0188986 0.0118116 -0.0188986 0.0118116 -0.0188986 0.0106304 -0.0200797 0.00944928 -0.0200797 0.00944928 -0.0200797 0.00708696 -0.0212609 0.00708696 -0.0212609 0.0059058 -0.022442 0.00472464 -0.022442 0.00354348 -0.022442 0.00354348 -0.022442 0.00118116 -0.0236232 0 -0.022442 0 -0.0236232 -0.00236232zm2.62336 1.37841l-0.888233 0.205522 0 -0.00118116 -0.0212609 -0.0791378 -0.022442 -0.0803189 -0.0259855 -0.0767754 -0.0283479 -0.0767754 -0.0307102 -0.0720508 -0.0342537 -0.0744131 -0.0354348 -0.0708696 -0.0377971 -0.066145 -0.0425218 -0.0673261 -0.0448841 -0.0696885 -0.0437029 -0.0614203 -0.0484276 -0.0602392 -0.0507899 -0.0614203 -0.0519711 -0.0555145 -0.0543334 -0.0566957 -0.0543334 -0.0507899 -0.0602392 -0.0507899 -0.0602392 -0.0496087 -0.0626015 -0.0460653 -0.0614203 -0.0437029 -0.0649638 -0.0401595 -0.0685073 -0.0401595 -0.066145 -0.0354348 -0.0685073 -0.0330725 -0.0696885 -0.0307102 -0.0720508 -0.0271667 -0.073232 -0.0248044 -0.073232 -0.022442 -0.0744131 -0.0188986 -0.0767754 -0.0165362 -0.0791378 -0.0141739 -0.0767754 -0.00944928 0.10158 -0.907131 0.114573 0.0165362 0.11221 0.0188986 0.11221 0.0236232 0.109848 0.0283479 0.108667 0.0318913 0.106304 0.036616 0.105123 0.0413406 0.105123 0.0448841 0.10158 0.0496087 0.0992175 0.0519711 0.0944928 0.0566957 0.095674 0.059058 0.0921305 0.0649638 0.088587 0.0649638 0.0862247 0.0708696 0.0838624 0.0720508 0.0826812 0.0791378 0.0779566 0.0779566 0.0755943 0.0838624 0.0720508 0.0850436 0.0696885 0.088587 0.0673261 0.0944928 0.0614203 0.0909494 0.059058 0.095674 0.0566957 0.10158 0.0519711 0.10158 0.0484276 0.102761 0.0448841 0.107486 0.0401595 0.107486 0.0377971 0.11221 0.0318913 0.111029 0.0283479 0.114573 0 -0.00118116zm-0.888233 0.204341l0.888233 -0.20316 0.00472464 0.022442 0.00354348 0.0236232 0.00236232 0.022442 0.00118116 0.022442 -0.00118116 0.022442 -0.00118116 0.022442 -0.00236232 0.022442 -0.00236232 0.022442 -0.00472464 0.0212609 -0.0059058 0.0212609 -0.0059058 0.0212609 -0.00826812 0.0212609 -0.00826812 0.0200797 -0.00944928 0.0200797 -0.00944928 0.0188986 -0.0118116 0.0188986 -0.0118116 0.0177174 -0.0129928 0.0177174 -0.0141739 0.0177174 -0.0141739 0.0165362 -0.0153551 0.0153551 -0.0165362 0.0153551 -0.0165362 0.0141739 -0.0177174 0.0129928 -0.0177174 0.0129928 -0.0188986 0.0118116 -0.0200797 0.0106304 -0.0200797 0.00944928 -0.0212609 0.00944928 -0.0212609 0.00708696 -0.022442 0.00708696 -0.022442 0.0059058 -0.022442 0.00472464 -0.0236232 0.00354348 -0.022442 0.00236232 -0.022442 0.00118116 -0.022442 -0.00118116 -0.022442 -0.00118116 -0.022442 -0.00236232 -0.022442 -0.00236232 -0.0212609 -0.00472464 -0.0212609 -0.0059058 -0.0212609 -0.0059058 -0.0212609 -0.00826812 -0.0200797 -0.00826812 -0.0200797 -0.00944928 -0.0188986 -0.00944928 -0.0188986 -0.0118116 -0.0177174 -0.0118116 -0.0177174 -0.0129928 -0.0177174 -0.0141739 -0.0165362 -0.0141739 -0.0153551 -0.0153551 -0.0153551 -0.0165362 -0.0141739 -0.0165362 -0.0129928 -0.0177174 -0.0129928 -0.0177174 -0.0118116 -0.0188986 -0.0106304 -0.0200797 -0.00944928 -0.0200797 -0.00944928 -0.0212609 -0.00708696 -0.0212609 -0.00708696 -0.022442 -0.0059058 -0.022442zm1.2414 4.55574l-0.911856 0 0 0 0 -0.144102 0 -0.145283 0 -0.145283 0 -0.14292 -0.00118116 -0.145283 -0.00118116 -0.146464 -0.00118116 -0.146464 -0.00118116 -0.144102 -0.00236232 -0.146464 -0.00236232 -0.144102 -0.00354348 -0.144102 -0.00472464 -0.146464 -0.00472464 -0.145283 -0.0059058 -0.145283 -0.0059058 -0.145283 -0.0059058 -0.141739 -0.00944928 -0.144102 -0.00944928 -0.145283 -0.0106304 -0.14292 -0.0118116 -0.14292 -0.0118116 -0.141739 -0.0141739 -0.14292 -0.0141739 -0.139377 -0.0177174 -0.140558 -0.0177174 -0.140558 -0.0200797 -0.139377 -0.0212609 -0.138196 -0.022442 -0.137015 -0.0248044 -0.135833 -0.0259855 -0.137015 -0.0283479 -0.134652 -0.029529 -0.133471 0.888233 -0.205522 0.0318913 0.147645 0.0307102 0.146464 0.0283479 0.148826 0.0271667 0.147645 0.0248044 0.148826 0.0236232 0.150007 0.0200797 0.148826 0.0200797 0.150007 0.0177174 0.150007 0.0165362 0.151189 0.0141739 0.150007 0.0141739 0.148826 0.0118116 0.15237 0.0106304 0.150007 0.00944928 0.147645 0.00944928 0.151189 0.00826812 0.153551 0.0059058 0.150007 0.0059058 0.147645 0.00472464 0.150007 0.00472464 0.148826 0.00354348 0.151189 0.00236232 0.148826 0.00236232 0.148826 0.00118116 0.148826 0.00118116 0.146464 0.00118116 0.146464 0.00118116 0.147645 0 0.147645 0 0.145283 0 0.145283 0 0.144102 0 0zm-0.911856 0l0.911856 0 -0.00118116 0.0236232 -0.00118116 0.022442 -0.00236232 0.0236232 -0.00472464 0.022442 -0.00472464 0.0212609 -0.0059058 0.022442 -0.00708696 0.0212609 -0.00826812 0.0200797 -0.00944928 0.0200797 -0.0106304 0.0200797 -0.0106304 0.0188986 -0.0118116 0.0188986 -0.0129928 0.0177174 -0.0129928 0.0165362 -0.0141739 0.0165362 -0.0153551 0.0165362 -0.0165362 0.0153551 -0.0165362 0.0141739 -0.0165362 0.0129928 -0.0177174 0.0129928 -0.0188986 0.0118116 -0.0188986 0.0106304 -0.0200797 0.0106304 -0.0200797 0.00944928 -0.0200797 0.00826812 -0.0212609 0.00708696 -0.022442 0.0059058 -0.0212609 0.00472464 -0.022442 0.00472464 -0.0236232 0.00236232 -0.022442 0.00118116 -0.0236232 0.00118116 -0.0236232 -0.00118116 -0.022442 -0.00118116 -0.0236232 -0.00236232 -0.022442 -0.00472464 -0.0212609 -0.00472464 -0.022442 -0.0059058 -0.0212609 -0.00708696 -0.0200797 -0.00826812 -0.0200797 -0.00944928 -0.0200797 -0.0106304 -0.0188986 -0.0106304 -0.0188986 -0.0118116 -0.0177174 -0.0129928 -0.0165362 -0.0129928 -0.0165362 -0.0141739 -0.0165362 -0.0153551 -0.0153551 -0.0165362 -0.0141739 -0.0165362 -0.0129928 -0.0165362 -0.0129928 -0.0177174 -0.0118116 -0.0188986 -0.0106304 -0.0188986 -0.0106304 -0.0200797 -0.00944928 -0.0200797 -0.00826812 -0.0200797 -0.00708696 -0.0212609 -0.0059058 -0.022442 -0.00472464 -0.0212609 -0.00472464 -0.022442 -0.00236232 -0.0236232 -0.00118116 -0.022442 -0.00118116 -0.0236232z"/>
  </g>
  <path class="fil2" d="M11.5659 17.9619l0 -1.2414 -4.15178 0 0 1.2414 1.40086 0 0 7.57714 1.32526 0 0 -7.57714 1.42566 0zm2.40602 7.57714l0 0 0 -0.715783c-0.472464,0.540972 -0.922486,0.806733 -1.35952,0.806733 -0.383877,0 -0.649638,-0.155913 -0.767754,-0.489 -0.0649638,-0.199616 -0.105123,-0.512624 -0.105123,-0.97682l0 -5.19592 1.19061 0 0 4.83803c0,0.278754 0,0.424037 0.0106304,0.461834 0.029529,0.185442 0.119297,0.278754 0.278754,0.278754 0.238594,0 0.489,-0.184261 0.752399,-0.556327l0 -5.02229 1.19179 0 0 6.5708 -1.19179 0zm4.52384 -1.87805l0 0c0,0.594124 -0.174812,0.88587 -0.517348,0.88587 -0.196073,0 -0.394508,-0.0933117 -0.594124,-0.291747l0 -4.0065c0.199616,-0.194891 0.398051,-0.289384 0.594124,-0.289384 0.342537,0 0.517348,0.304739 0.517348,0.896501l0 2.80526zm1.19061 -0.0933117l0 0 0 -2.61745c0,-0.62129 -0.0401595,-1.05714 -0.119297,-1.32054 -0.159457,-0.492544 -0.47837,-0.741769 -0.952015,-0.741769 -0.437029,0 -0.845711,0.239776 -1.23077,0.71224l0 -2.87967 -1.19061 0 0 8.81854 1.19061 0 0 -0.636646c0.398051,0.492544 0.806733,0.727595 1.23077,0.727595 0.473645,0 0.792559,-0.250406 0.952015,-0.738225 0.0791378,-0.278754 0.119297,-0.716964 0.119297,-1.32408zm3.30371 -2.08829l0 0 -1.19061 0 0 -0.607116c0,-0.608298 0.199616,-0.913037 0.597667,-0.913037 0.393326,0 0.592943,0.304739 0.592943,0.913037l0 0.607116zm1.19061 1.95718l0 0 0 -0.173631 -1.21541 0c0,0.47837 -0.0141739,0.740588 -0.0259855,0.806733 -0.0685073,0.317732 -0.239776,0.477189 -0.531522,0.477189 -0.408682,0 -0.608298,-0.302377 -0.608298,-0.911856l0 -1.16344 2.38122 0 0 -1.36188c0,-0.70279 -0.120478,-1.2166 -0.369703,-1.5485 -0.333087,-0.450022 -0.806733,-0.673261 -1.40322,-0.673261 -0.608298,0 -1.08312,0.223239 -1.42566,0.673261 -0.25395,0.331906 -0.368522,0.845711 -0.368522,1.5485l0 2.30208c0,0.696885 0.128746,1.2166 0.381515,1.54496 0.344899,0.448841 0.818544,0.673261 1.4422,0.673261 0.62129,0 1.11029,-0.235051 1.43983,-0.71224 0.144102,-0.210247 0.237413,-0.451203 0.277573,-0.713421 0.0106304,-0.119297 0.0259855,-0.385058 0.0259855,-0.767754z"/>
 </g>
</svg>
