<?xml version="1.0" encoding="UTF-8"?>
<!DOCTYPE svg PUBLIC "-//W3C//DTD SVG 1.1//EN" "http://www.w3.org/Graphics/SVG/1.1/DTD/svg11.dtd">
<!-- Creator: CorelDRAW -->
<svg xmlns="http://www.w3.org/2000/svg" xml:space="preserve" width="32px" height="32px" style="shape-rendering:geometricPrecision; text-rendering:geometricPrecision; image-rendering:optimizeQuality; fill-rule:evenodd; clip-rule:evenodd"
viewBox="0 0 32 32"
 xmlns:xlink="http://www.w3.org/1999/xlink">
 <defs>
  <style type="text/css">
   <![CDATA[
    .fil1 {fill:#888888;fill-rule:nonzero}
    .fil2 {fill:white;fill-rule:nonzero}
    .fil0 {fill:#888888;fill-rule:nonzero;fill-opacity:0.901961}
   ]]>
  </style>
 </defs>
 <g id="Layer_x0020_1">
  <metadata id="CorelCorpID_0Corel-Layer"/>
  <g id="_235468024">
   <g>
    <path id="_98460712" class="fil0" d="M26.7911 32.5008l0 -2.00089 0 0 0.190167 -0.00354348 0.190167 -0.0153551 0.186623 -0.0236232 0.180718 -0.0318913 0.180718 -0.0425218 0.177174 -0.0496087 0.170087 -0.0578769 0.168906 -0.066145 0.163 -0.073232 0.158276 -0.0815001 0.155913 -0.0897682 0.15237 -0.0980363 0.146464 -0.103942 0.137015 -0.107486 0.135833 -0.118116 0.128746 -0.124022 0.124022 -0.128746 0.118116 -0.135833 0.107486 -0.137015 0.103942 -0.146464 0.0980363 -0.15237 0.0897682 -0.155913 0.0815001 -0.158276 0.073232 -0.163 0.066145 -0.168906 0.0578769 -0.170087 0.0496087 -0.177174 0.0425218 -0.180718 0.0318913 -0.180718 0.0236232 -0.186623 0.0153551 -0.190167 0.00354348 -0.190167 2.00089 0 -0.00826812 0.294109 -0.022442 0.289384 -0.0354348 0.283479 -0.0507899 0.28466 -0.0637827 0.272848 -0.0755943 0.271667 -0.0909494 0.266942 -0.10158 0.258674 -0.115754 0.255131 -0.126384 0.245681 -0.137015 0.238594 -0.147645 0.230326 -0.158276 0.22442 -0.171268 0.217334 -0.179536 0.206703 -0.187805 0.197254 -0.197254 0.187805 -0.206703 0.179536 -0.217334 0.171268 -0.22442 0.158276 -0.230326 0.147645 -0.238594 0.137015 -0.245681 0.126384 -0.255131 0.115754 -0.258674 0.10158 -0.266942 0.0909494 -0.271667 0.0755943 -0.272848 0.0637827 -0.28466 0.0507899 -0.283479 0.0354348 -0.289384 0.022442 -0.294109 0.00826812 0 0zm0 -2.00089l0 2.00089 -0.0519711 -0.00118116 -0.0496087 -0.00354348 -0.0507899 -0.00708696 -0.0484276 -0.00826812 -0.0484276 -0.0118116 -0.0484276 -0.0129928 -0.0460653 -0.0153551 -0.0448841 -0.0188986 -0.0448841 -0.0200797 -0.0425218 -0.0212609 -0.0425218 -0.0248044 -0.0401595 -0.0259855 -0.0389783 -0.0271667 -0.0377971 -0.0307102 -0.036616 -0.0307102 -0.0354348 -0.0330725 -0.0330725 -0.0354348 -0.0307102 -0.036616 -0.0307102 -0.0377971 -0.0271667 -0.0389783 -0.0259855 -0.0401595 -0.0248044 -0.0425218 -0.0212609 -0.0425218 -0.0200797 -0.0448841 -0.0188986 -0.0448841 -0.0153551 -0.0460653 -0.0129928 -0.0484276 -0.0118116 -0.0484276 -0.00826812 -0.0484276 -0.00708696 -0.0507899 -0.00354348 -0.0496087 -0.00118116 -0.0519711 0.00118116 -0.0519711 0.00354348 -0.0496087 0.00708696 -0.0507899 0.00826812 -0.0484276 0.0118116 -0.0484276 0.0129928 -0.0484276 0.0153551 -0.0460653 0.0188986 -0.0448841 0.0200797 -0.0448841 0.0212609 -0.0425218 0.0248044 -0.0425218 0.0259855 -0.0401595 0.0271667 -0.0389783 0.0307102 -0.0377971 0.0307102 -0.036616 0.0330725 -0.0354348 0.0354348 -0.0330725 0.036616 -0.0307102 0.0377971 -0.0307102 0.0389783 -0.0271667 0.0401595 -0.0259855 0.0425218 -0.0248044 0.0425218 -0.0212609 0.0448841 -0.0200797 0.0448841 -0.0188986 0.0460653 -0.0153551 0.0484276 -0.0129928 0.0484276 -0.0118116 0.0484276 -0.00826812 0.0507899 -0.00708696 0.0496087 -0.00354348 0.0519711 -0.00118116zm-21.5822 0l21.5822 0 0 2.00089 -21.5822 0 0 0 0 -2.00089zm0 0l0 2.00089 -0.0519711 -0.00118116 -0.0496087 -0.00354348 -0.0507899 -0.00708696 -0.0484276 -0.00826812 -0.0484276 -0.0118116 -0.0484276 -0.0129928 -0.0460653 -0.0153551 -0.0448841 -0.0188986 -0.0448841 -0.0200797 -0.0425218 -0.0212609 -0.0425218 -0.0248044 -0.0401595 -0.0259855 -0.0389783 -0.0271667 -0.0377971 -0.0307102 -0.036616 -0.0307102 -0.0354348 -0.0330725 -0.0330725 -0.0354348 -0.0307102 -0.036616 -0.0307102 -0.0377971 -0.0271667 -0.0389783 -0.0259855 -0.0401595 -0.0248044 -0.0425218 -0.0212609 -0.0425218 -0.0200797 -0.0448841 -0.0188986 -0.0448841 -0.0153551 -0.0460653 -0.0129928 -0.0484276 -0.0118116 -0.0484276 -0.00826812 -0.0484276 -0.00708696 -0.0507899 -0.00354348 -0.0496087 -0.00118116 -0.0519711 0.00118116 -0.0519711 0.00354348 -0.0496087 0.00708696 -0.0507899 0.00826812 -0.0484276 0.0118116 -0.0484276 0.0129928 -0.0484276 0.0153551 -0.0460653 0.0188986 -0.0448841 0.0200797 -0.0448841 0.0212609 -0.0425218 0.0248044 -0.0425218 0.0259855 -0.0401595 0.0271667 -0.0389783 0.0307102 -0.0377971 0.0307102 -0.036616 0.0330725 -0.0354348 0.0354348 -0.0330725 0.036616 -0.0307102 0.0377971 -0.0307102 0.0389783 -0.0271667 0.0401595 -0.0259855 0.0425218 -0.0248044 0.0425218 -0.0212609 0.0448841 -0.0200797 0.0448841 -0.0188986 0.0460653 -0.0153551 0.0484276 -0.0129928 0.0484276 -0.0118116 0.0484276 -0.00826812 0.0507899 -0.00708696 0.0496087 -0.00354348 0.0519711 -0.00118116zm-5.71091 -3.70884l2.00089 0 0 0 0.00354348 0.190167 0.0153551 0.190167 0.0236232 0.186623 0.0318913 0.180718 0.0425218 0.180718 0.0496087 0.177174 0.0578769 0.170087 0.066145 0.168906 0.073232 0.163 0.0815001 0.158276 0.0897682 0.155913 0.0980363 0.15237 0.10158 0.144102 0.111029 0.139377 0.118116 0.137015 0.120478 0.126384 0.13229 0.125203 0.134652 0.118116 0.138196 0.107486 0.146464 0.105123 0.151189 0.0968552 0.154732 0.088587 0.159457 0.0815001 0.164181 0.0744131 0.168906 0.066145 0.170087 0.0578769 0.177174 0.0496087 0.180718 0.0425218 0.180718 0.0318913 0.186623 0.0236232 0.190167 0.0153551 0.190167 0.00354348 0 2.00089 -0.294109 -0.00826812 -0.289384 -0.022442 -0.283479 -0.0354348 -0.28466 -0.0507899 -0.272848 -0.0637827 -0.271667 -0.0755943 -0.266942 -0.0909494 -0.258674 -0.10158 -0.25395 -0.114573 -0.246863 -0.126384 -0.239776 -0.138196 -0.231507 -0.148826 -0.222058 -0.157094 -0.218515 -0.171268 -0.205522 -0.179536 -0.196073 -0.186623 -0.191348 -0.199616 -0.177174 -0.205522 -0.170087 -0.214971 -0.160638 -0.226783 -0.147645 -0.230326 -0.137015 -0.238594 -0.126384 -0.245681 -0.115754 -0.255131 -0.10158 -0.258674 -0.0909494 -0.266942 -0.0755943 -0.271667 -0.0637827 -0.272848 -0.0507899 -0.28466 -0.0354348 -0.283479 -0.022442 -0.289384 -0.00826812 -0.294109 0 0zm2.00089 0l-2.00089 0 0.00118116 -0.0519711 0.00354348 -0.0496087 0.00708696 -0.0507899 0.00826812 -0.0484276 0.0118116 -0.0484276 0.0129928 -0.0484276 0.0153551 -0.0460653 0.0188986 -0.0448841 0.0200797 -0.0448841 0.0212609 -0.0425218 0.0248044 -0.0425218 0.0259855 -0.0401595 0.0271667 -0.0389783 0.0307102 -0.0377971 0.0307102 -0.036616 0.0330725 -0.0354348 0.0354348 -0.0330725 0.036616 -0.0307102 0.0377971 -0.0307102 0.0389783 -0.0271667 0.0401595 -0.0259855 0.0425218 -0.0248044 0.0425218 -0.0212609 0.0448841 -0.0200797 0.0448841 -0.0188986 0.0460653 -0.0153551 0.0484276 -0.0129928 0.0484276 -0.0118116 0.0484276 -0.00826812 0.0507899 -0.00708696 0.0496087 -0.00354348 0.0519711 -0.00118116 0.0519711 0.00118116 0.0496087 0.00354348 0.0507899 0.00708696 0.0484276 0.00826812 0.0484276 0.0118116 0.0484276 0.0129928 0.0460653 0.0153551 0.0448841 0.0188986 0.0448841 0.0200797 0.0425218 0.0212609 0.0425218 0.0248044 0.0401595 0.0259855 0.0389783 0.0271667 0.0377971 0.0307102 0.036616 0.0307102 0.0354348 0.0330725 0.0330725 0.0354348 0.0307102 0.036616 0.0307102 0.0377971 0.0271667 0.0389783 0.0259855 0.0401595 0.0248044 0.0425218 0.0212609 0.0425218 0.0200797 0.0448841 0.0188986 0.0448841 0.0153551 0.0460653 0.0129928 0.0484276 0.0118116 0.0484276 0.00826812 0.0484276 0.00708696 0.0507899 0.00354348 0.0496087 0.00118116 0.0519711zm0 -21.5822l0 21.5822 -2.00089 0 0 -21.5822 0 0 2.00089 0zm0 0l-2.00089 0 0.00118116 -0.0519711 0.00354348 -0.0496087 0.00708696 -0.0507899 0.00826812 -0.0484276 0.0118116 -0.0484276 0.0129928 -0.0484276 0.0153551 -0.0460653 0.0188986 -0.0448841 0.0200797 -0.0448841 0.0212609 -0.0425218 0.0248044 -0.0425218 0.0259855 -0.0401595 0.0271667 -0.0389783 0.0307102 -0.0377971 0.0307102 -0.036616 0.0330725 -0.0354348 0.0354348 -0.0330725 0.036616 -0.0307102 0.0377971 -0.0307102 0.0389783 -0.0271667 0.0401595 -0.0259855 0.0425218 -0.0248044 0.0425218 -0.0212609 0.0448841 -0.0200797 0.0448841 -0.0188986 0.0460653 -0.0153551 0.0484276 -0.0129928 0.0484276 -0.0118116 0.0484276 -0.00826812 0.0507899 -0.00708696 0.0496087 -0.00354348 0.0519711 -0.00118116 0.0519711 0.00118116 0.0496087 0.00354348 0.0507899 0.00708696 0.0484276 0.00826812 0.0484276 0.0118116 0.0484276 0.0129928 0.0460653 0.0153551 0.0448841 0.0188986 0.0448841 0.0200797 0.0425218 0.0212609 0.0425218 0.0248044 0.0401595 0.0259855 0.0389783 0.0271667 0.0377971 0.0307102 0.036616 0.0307102 0.0354348 0.0330725 0.0330725 0.0354348 0.0307102 0.036616 0.0307102 0.0377971 0.0271667 0.0389783 0.0259855 0.0401595 0.0248044 0.0425218 0.0212609 0.0425218 0.0200797 0.0448841 0.0188986 0.0448841 0.0153551 0.0460653 0.0129928 0.0484276 0.0118116 0.0484276 0.00826812 0.0484276 0.00708696 0.0507899 0.00354348 0.0496087 0.00118116 0.0519711zm3.71003 -5.71091l0 2.00089 0 0 -0.190167 0.00354348 -0.190167 0.0153551 -0.186623 0.0236232 -0.180718 0.0318913 -0.180718 0.0425218 -0.177174 0.0496087 -0.170087 0.0578769 -0.168906 0.066145 -0.164181 0.0744131 -0.159457 0.0815001 -0.154732 0.088587 -0.151189 0.0968552 -0.144102 0.102761 -0.140558 0.111029 -0.135833 0.118116 -0.128746 0.122841 -0.122841 0.128746 -0.118116 0.135833 -0.111029 0.140558 -0.102761 0.144102 -0.0968552 0.151189 -0.088587 0.154732 -0.0815001 0.159457 -0.0744131 0.164181 -0.066145 0.168906 -0.0578769 0.170087 -0.0496087 0.177174 -0.0425218 0.180718 -0.0318913 0.180718 -0.0236232 0.186623 -0.0153551 0.190167 -0.00354348 0.190167 -2.00089 0 0.00826812 -0.294109 0.022442 -0.289384 0.0354348 -0.283479 0.0507899 -0.28466 0.0637827 -0.272848 0.0755943 -0.271667 0.0909494 -0.266942 0.10158 -0.258674 0.114573 -0.25395 0.126384 -0.246863 0.138196 -0.239776 0.148826 -0.231507 0.159457 -0.22442 0.170087 -0.216152 0.177174 -0.204341 0.188986 -0.199616 0.199616 -0.188986 0.204341 -0.177174 0.216152 -0.170087 0.22442 -0.159457 0.231507 -0.148826 0.239776 -0.138196 0.246863 -0.126384 0.25395 -0.114573 0.258674 -0.10158 0.266942 -0.0909494 0.271667 -0.0755943 0.272848 -0.0637827 0.28466 -0.0507899 0.283479 -0.0354348 0.289384 -0.022442 0.294109 -0.00826812 0 0zm0 2.00089l0 -2.00089 0.0519711 0.00118116 0.0496087 0.00354348 0.0507899 0.00708696 0.0484276 0.00826812 0.0484276 0.0118116 0.0484276 0.0129928 0.0460653 0.0153551 0.0448841 0.0188986 0.0448841 0.0200797 0.0425218 0.0212609 0.0425218 0.0248044 0.0401595 0.0259855 0.0389783 0.0271667 0.0377971 0.0307102 0.036616 0.0307102 0.0354348 0.0330725 0.0330725 0.0354348 0.0307102 0.036616 0.0307102 0.0377971 0.0271667 0.0389783 0.0259855 0.0401595 0.0248044 0.0425218 0.0212609 0.0425218 0.0200797 0.0448841 0.0188986 0.0448841 0.0153551 0.0460653 0.0129928 0.0484276 0.0118116 0.0484276 0.00826812 0.0484276 0.00708696 0.0507899 0.00354348 0.0496087 0.00118116 0.0519711 -0.00118116 0.0519711 -0.00354348 0.0496087 -0.00708696 0.0507899 -0.00826812 0.0484276 -0.0118116 0.0484276 -0.0129928 0.0484276 -0.0153551 0.0460653 -0.0188986 0.0448841 -0.0200797 0.0448841 -0.0212609 0.0425218 -0.0248044 0.0425218 -0.0259855 0.0401595 -0.0271667 0.0389783 -0.0307102 0.0377971 -0.0307102 0.036616 -0.0330725 0.0354348 -0.0354348 0.0330725 -0.036616 0.0307102 -0.0377971 0.0307102 -0.0389783 0.0271667 -0.0401595 0.0259855 -0.0425218 0.0248044 -0.0425218 0.0212609 -0.0448841 0.0200797 -0.0448841 0.0188986 -0.0460653 0.0153551 -0.0484276 0.0129928 -0.0484276 0.0118116 -0.0484276 0.00826812 -0.0507899 0.00708696 -0.0496087 0.00354348 -0.0519711 0.00118116zm21.5822 0l-21.5822 0 0 -2.00089 21.5822 0 0 0 0 2.00089zm0 0l0 -2.00089 0.0519711 0.00118116 0.0496087 0.00354348 0.0507899 0.00708696 0.0484276 0.00826812 0.0484276 0.0118116 0.0484276 0.0129928 0.0460653 0.0153551 0.0448841 0.0188986 0.0448841 0.0200797 0.0425218 0.0212609 0.0425218 0.0248044 0.0401595 0.0259855 0.0389783 0.0271667 0.0377971 0.0307102 0.036616 0.0307102 0.0354348 0.0330725 0.0330725 0.0354348 0.0307102 0.036616 0.0307102 0.0377971 0.0271667 0.0389783 0.0259855 0.0401595 0.0248044 0.0425218 0.0212609 0.0425218 0.0200797 0.0448841 0.0188986 0.0448841 0.0153551 0.0460653 0.0129928 0.0484276 0.0118116 0.0484276 0.00826812 0.0484276 0.00708696 0.0507899 0.00354348 0.0496087 0.00118116 0.0519711 -0.00118116 0.0519711 -0.00354348 0.0496087 -0.00708696 0.0507899 -0.00826812 0.0484276 -0.0118116 0.0484276 -0.0129928 0.0484276 -0.0153551 0.0460653 -0.0188986 0.0448841 -0.0200797 0.0448841 -0.0212609 0.0425218 -0.0248044 0.0425218 -0.0259855 0.0401595 -0.0271667 0.0389783 -0.0307102 0.0377971 -0.0307102 0.036616 -0.0330725 0.0354348 -0.0354348 0.0330725 -0.036616 0.0307102 -0.0377971 0.0307102 -0.0389783 0.0271667 -0.0401595 0.0259855 -0.0425218 0.0248044 -0.0425218 0.0212609 -0.0448841 0.0200797 -0.0448841 0.0188986 -0.0460653 0.0153551 -0.0484276 0.0129928 -0.0484276 0.0118116 -0.0484276 0.00826812 -0.0507899 0.00708696 -0.0496087 0.00354348 -0.0519711 0.00118116zm5.70973 3.71003l-2.00089 0 0 0 -0.00354348 -0.190167 -0.0153551 -0.190167 -0.0236232 -0.186623 -0.0318913 -0.180718 -0.0425218 -0.180718 -0.0496087 -0.177174 -0.0578769 -0.170087 -0.066145 -0.168906 -0.0744131 -0.164181 -0.0815001 -0.159457 -0.088587 -0.154732 -0.0968552 -0.151189 -0.105123 -0.146464 -0.107486 -0.138196 -0.118116 -0.134652 -0.125203 -0.13229 -0.126384 -0.120478 -0.137015 -0.118116 -0.139377 -0.111029 -0.144102 -0.10158 -0.15237 -0.0980363 -0.155913 -0.0897682 -0.158276 -0.0815001 -0.163 -0.073232 -0.168906 -0.066145 -0.170087 -0.0578769 -0.177174 -0.0496087 -0.180718 -0.0425218 -0.180718 -0.0318913 -0.186623 -0.0236232 -0.190167 -0.0153551 -0.190167 -0.00354348 0 -2.00089 0.294109 0.00826812 0.289384 0.022442 0.283479 0.0354348 0.28466 0.0507899 0.272848 0.0637827 0.271667 0.0755943 0.266942 0.0909494 0.258674 0.10158 0.255131 0.115754 0.245681 0.126384 0.238594 0.137015 0.230326 0.147645 0.226783 0.160638 0.214971 0.170087 0.205522 0.177174 0.199616 0.191348 0.186623 0.196073 0.179536 0.205522 0.171268 0.218515 0.157094 0.222058 0.148826 0.231507 0.138196 0.239776 0.126384 0.246863 0.114573 0.25395 0.10158 0.258674 0.0909494 0.266942 0.0755943 0.271667 0.0637827 0.272848 0.0507899 0.28466 0.0354348 0.283479 0.022442 0.289384 0.00826812 0.294109 0 0zm-2.00089 0l2.00089 0 -0.00118116 0.0519711 -0.00354348 0.0496087 -0.00708696 0.0507899 -0.00826812 0.0484276 -0.0118116 0.0484276 -0.0129928 0.0484276 -0.0153551 0.0460653 -0.0188986 0.0448841 -0.0200797 0.0448841 -0.0212609 0.0425218 -0.0248044 0.0425218 -0.0259855 0.0401595 -0.0271667 0.0389783 -0.0307102 0.0377971 -0.0307102 0.036616 -0.0330725 0.0354348 -0.0354348 0.0330725 -0.036616 0.0307102 -0.0377971 0.0307102 -0.0389783 0.0271667 -0.0401595 0.0259855 -0.0425218 0.0248044 -0.0425218 0.0212609 -0.0448841 0.0200797 -0.0448841 0.0188986 -0.0460653 0.0153551 -0.0484276 0.0129928 -0.0484276 0.0118116 -0.0484276 0.00826812 -0.0507899 0.00708696 -0.0496087 0.00354348 -0.0519711 0.00118116 -0.0519711 -0.00118116 -0.0496087 -0.00354348 -0.0507899 -0.00708696 -0.0484276 -0.00826812 -0.0484276 -0.0118116 -0.0484276 -0.0129928 -0.0460653 -0.0153551 -0.0448841 -0.0188986 -0.0448841 -0.0200797 -0.0425218 -0.0212609 -0.0425218 -0.0248044 -0.0401595 -0.0259855 -0.0389783 -0.0271667 -0.0377971 -0.0307102 -0.036616 -0.0307102 -0.0354348 -0.0330725 -0.0330725 -0.0354348 -0.0307102 -0.036616 -0.0307102 -0.0377971 -0.0271667 -0.0389783 -0.0259855 -0.0401595 -0.0248044 -0.0425218 -0.0212609 -0.0425218 -0.0200797 -0.0448841 -0.0188986 -0.0448841 -0.0153551 -0.0460653 -0.0129928 -0.0484276 -0.0118116 -0.0484276 -0.00826812 -0.0484276 -0.00708696 -0.0507899 -0.00354348 -0.0496087 -0.00118116 -0.0519711zm0 21.5822l0 -21.5822 2.00089 0 0 21.5822 0 0 -2.00089 0zm0 0l2.00089 0 -0.00118116 0.0519711 -0.00354348 0.0496087 -0.00708696 0.0507899 -0.00826812 0.0484276 -0.0118116 0.0484276 -0.0129928 0.0484276 -0.0153551 0.0460653 -0.0188986 0.0448841 -0.0200797 0.0448841 -0.0212609 0.0425218 -0.0248044 0.0425218 -0.0259855 0.0401595 -0.0271667 0.0389783 -0.0307102 0.0377971 -0.0307102 0.036616 -0.0330725 0.0354348 -0.0354348 0.0330725 -0.036616 0.0307102 -0.0377971 0.0307102 -0.0389783 0.0271667 -0.0401595 0.0259855 -0.0425218 0.0248044 -0.0425218 0.0212609 -0.0448841 0.0200797 -0.0448841 0.0188986 -0.0460653 0.0153551 -0.0484276 0.0129928 -0.0484276 0.0118116 -0.0484276 0.00826812 -0.0507899 0.00708696 -0.0496087 0.00354348 -0.0519711 0.00118116 -0.0519711 -0.00118116 -0.0496087 -0.00354348 -0.0507899 -0.00708696 -0.0484276 -0.00826812 -0.0484276 -0.0118116 -0.0484276 -0.0129928 -0.0460653 -0.0153551 -0.0448841 -0.0188986 -0.0448841 -0.0200797 -0.0425218 -0.0212609 -0.0425218 -0.0248044 -0.0401595 -0.0259855 -0.0389783 -0.0271667 -0.0377971 -0.0307102 -0.036616 -0.0307102 -0.0354348 -0.0330725 -0.0330725 -0.0354348 -0.0307102 -0.036616 -0.0307102 -0.0377971 -0.0271667 -0.0389783 -0.0259855 -0.0401595 -0.0248044 -0.0425218 -0.0212609 -0.0425218 -0.0200797 -0.0448841 -0.0188986 -0.0448841 -0.0153551 -0.0460653 -0.0129928 -0.0484276 -0.0118116 -0.0484276 -0.00826812 -0.0484276 -0.00708696 -0.0507899 -0.00354348 -0.0496087 -0.00118116 -0.0519711z"/>
   </g>
   <g>
    <path class="fil1" d="M25.7729 14.6488l-0.500812 3.8872 -1.98435 -0.255131 0.500812 -3.8872 0.992175 -0.872878 0.992175 1.12801zm0 0l-1.98435 -0.255131 0.00826812 -0.0507899 0.00944928 -0.0496087 0.0129928 -0.0484276 0.0153551 -0.0484276 0.0165362 -0.0460653 0.0200797 -0.0460653 0.0212609 -0.0437029 0.0236232 -0.0425218 0.0259855 -0.0413406 0.0271667 -0.0401595 0.029529 -0.0377971 0.0307102 -0.0377971 0.0318913 -0.0354348 0.0354348 -0.0330725 0.0354348 -0.0318913 0.0377971 -0.0307102 0.0377971 -0.0283479 0.0401595 -0.0259855 0.0413406 -0.0248044 0.0425218 -0.022442 0.0437029 -0.0212609 0.0448841 -0.0188986 0.0448841 -0.0165362 0.0472464 -0.0141739 0.0472464 -0.0118116 0.0484276 -0.00944928 0.0484276 -0.00708696 0.0496087 -0.00472464 0.0496087 -0.00354348 0.0507899 0 0.0507899 0.00354348 0.0507899 0.00472464 0.0507899 0.00826812 0.0496087 0.00944928 0.0484276 0.0129928 0.0484276 0.0153551 0.0460653 0.0165362 0.0460653 0.0200797 0.0437029 0.0212609 0.0425218 0.0236232 0.0413406 0.0259855 0.0401595 0.0271667 0.0377971 0.029529 0.0377971 0.0307102 0.0354348 0.0318913 0.0330725 0.0354348 0.0318913 0.0354348 0.0307102 0.036616 0.0283479 0.0389783 0.0259855 0.0401595 0.0248044 0.0413406 0.022442 0.0425218 0.0212609 0.0437029 0.0188986 0.0448841 0.0165362 0.0448841 0.0141739 0.0472464 0.0118116 0.0472464 0.00944928 0.0484276 0.00708696 0.0484276 0.00472464 0.0496087 0.00354348 0.0496087 0 0.0507899 -0.00354348 0.0507899 -0.00472464 0.0507899zm-4.8404 -1.12801l3.84822 0 0 2.00089 -3.84822 0 -1.00044 -1.00044 1.00044 -1.00044zm0 0l0 2.00089 -0.0519711 -0.00118116 -0.0496087 -0.00354348 -0.0507899 -0.00708696 -0.0484276 -0.00826812 -0.0484276 -0.0118116 -0.0484276 -0.0129928 -0.0460653 -0.0153551 -0.0448841 -0.0188986 -0.0448841 -0.0200797 -0.0425218 -0.0212609 -0.0425218 -0.0248044 -0.0401595 -0.0259855 -0.0389783 -0.0271667 -0.0377971 -0.0307102 -0.036616 -0.0307102 -0.0354348 -0.0330725 -0.0330725 -0.0354348 -0.0307102 -0.036616 -0.0307102 -0.0377971 -0.0271667 -0.0389783 -0.0259855 -0.0401595 -0.0248044 -0.0425218 -0.0212609 -0.0425218 -0.0200797 -0.0448841 -0.0188986 -0.0448841 -0.0153551 -0.0460653 -0.0129928 -0.0484276 -0.0118116 -0.0484276 -0.00826812 -0.0484276 -0.00708696 -0.0507899 -0.00354348 -0.0496087 -0.00118116 -0.0519711 0.00118116 -0.0519711 0.00354348 -0.0496087 0.00708696 -0.0507899 0.00826812 -0.0484276 0.0118116 -0.0484276 0.0129928 -0.0484276 0.0153551 -0.0460653 0.0188986 -0.0448841 0.0200797 -0.0448841 0.0212609 -0.0425218 0.0248044 -0.0425218 0.0259855 -0.0401595 0.0271667 -0.0389783 0.0307102 -0.0377971 0.0307102 -0.036616 0.0330725 -0.0354348 0.0354348 -0.0330725 0.036616 -0.0307102 0.0377971 -0.0307102 0.0389783 -0.0271667 0.0401595 -0.0259855 0.0425218 -0.0248044 0.0425218 -0.0212609 0.0448841 -0.0200797 0.0448841 -0.0188986 0.0460653 -0.0153551 0.0484276 -0.0129928 0.0484276 -0.0118116 0.0484276 -0.00826812 0.0507899 -0.00708696 0.0496087 -0.00354348 0.0519711 -0.00118116zm1.00044 -1.48118l0 2.48162 -2.00089 0 0 -2.48162 0 0 2.00089 0zm0 0l-2.00089 0 0.00118116 -0.0519711 0.00354348 -0.0496087 0.00708696 -0.0507899 0.00826812 -0.0484276 0.0118116 -0.0484276 0.0129928 -0.0484276 0.0153551 -0.0460653 0.0188986 -0.0448841 0.0200797 -0.0448841 0.0212609 -0.0425218 0.0248044 -0.0425218 0.0259855 -0.0401595 0.0271667 -0.0389783 0.0307102 -0.0377971 0.0307102 -0.036616 0.0330725 -0.0354348 0.0354348 -0.0330725 0.036616 -0.0307102 0.0377971 -0.0307102 0.0389783 -0.0271667 0.0401595 -0.0259855 0.0425218 -0.0248044 0.0425218 -0.0212609 0.0448841 -0.0200797 0.0448841 -0.0188986 0.0460653 -0.0153551 0.0484276 -0.0129928 0.0484276 -0.0118116 0.0484276 -0.00826812 0.0507899 -0.00708696 0.0496087 -0.00354348 0.0519711 -0.00118116 0.0519711 0.00118116 0.0496087 0.00354348 0.0507899 0.00708696 0.0484276 0.00826812 0.0484276 0.0118116 0.0484276 0.0129928 0.0460653 0.0153551 0.0448841 0.0188986 0.0448841 0.0200797 0.0425218 0.0212609 0.0425218 0.0248044 0.0401595 0.0259855 0.0389783 0.0271667 0.0377971 0.0307102 0.036616 0.0307102 0.0354348 0.0330725 0.0330725 0.0354348 0.0307102 0.036616 0.0307102 0.0377971 0.0271667 0.0389783 0.0259855 0.0401595 0.0248044 0.0425218 0.0212609 0.0425218 0.0200797 0.0448841 0.0188986 0.0448841 0.0153551 0.0460653 0.0129928 0.0484276 0.0118116 0.0484276 0.00826812 0.0484276 0.00708696 0.0507899 0.00354348 0.0496087 0.00118116 0.0519711zm0.927211 -2.89266l0 2.00089 0 0 -0.114573 0.00118116 -0.107486 0.0059058 -0.0980363 0.00708696 -0.0874059 0.0106304 -0.0767754 0.0129928 -0.0602392 0.0118116 -0.0602392 0.0165362 -0.0472464 0.0141739 -0.036616 0.0153551 -0.0389783 0.0165362 -0.0200797 0.0106304 -0.0165362 0.0106304 -0.0141739 0.00944928 -0.00826812 0.00708696 -0.00944928 0.00944928 -0.00944928 0.0106304 -0.0059058 0.00708696 -0.00472464 0.00708696 -0.0129928 0.022442 -0.0118116 0.022442 -0.00708696 0.0177174 -0.0106304 0.0259855 -0.0106304 0.036616 -0.0118116 0.0448841 -0.00944928 0.0437029 -0.00826812 0.0555145 -0.00944928 0.0637827 -0.00708696 0.0626015 -0.00472464 0.0708696 -0.00472464 0.0744131 -0.00236232 0.0803189 0 0.0862247 -2.00089 0 0.00236232 -0.12166 0.00236232 -0.125203 0.00708696 -0.126384 0.00944928 -0.122841 0.0141739 -0.128746 0.0165362 -0.120478 0.022442 -0.126384 0.0283479 -0.131109 0.0330725 -0.125203 0.0389783 -0.126384 0.0484276 -0.134652 0.059058 -0.133471 0.0637827 -0.124022 0.0696885 -0.119297 0.0850436 -0.127565 0.095674 -0.120478 0.0992175 -0.109848 0.111029 -0.106304 0.12166 -0.10158 0.125203 -0.0897682 0.134652 -0.0838624 0.14292 -0.0744131 0.135833 -0.0614203 0.150007 -0.0578769 0.151189 -0.0472464 0.150007 -0.0401595 0.164181 -0.0354348 0.161819 -0.0248044 0.163 -0.0200797 0.168906 -0.0141739 0.171268 -0.00826812 0.180718 -0.00354348 0 0zm0 2.00089l0 -2.00089 0.0519711 0.00118116 0.0496087 0.00354348 0.0507899 0.00708696 0.0484276 0.00826812 0.0484276 0.0118116 0.0484276 0.0129928 0.0460653 0.0153551 0.0448841 0.0188986 0.0448841 0.0200797 0.0425218 0.0212609 0.0425218 0.0248044 0.0401595 0.0259855 0.0389783 0.0271667 0.0377971 0.0307102 0.036616 0.0307102 0.0354348 0.0330725 0.0330725 0.0354348 0.0307102 0.036616 0.0307102 0.0377971 0.0271667 0.0389783 0.0259855 0.0401595 0.0248044 0.0425218 0.0212609 0.0425218 0.0200797 0.0448841 0.0188986 0.0448841 0.0153551 0.0460653 0.0129928 0.0484276 0.0118116 0.0484276 0.00826812 0.0484276 0.00708696 0.0507899 0.00354348 0.0496087 0.00118116 0.0519711 -0.00118116 0.0519711 -0.00354348 0.0496087 -0.00708696 0.0507899 -0.00826812 0.0484276 -0.0118116 0.0484276 -0.0129928 0.0484276 -0.0153551 0.0460653 -0.0188986 0.0448841 -0.0200797 0.0448841 -0.0212609 0.0425218 -0.0248044 0.0425218 -0.0259855 0.0401595 -0.0271667 0.0389783 -0.0307102 0.0377971 -0.0307102 0.036616 -0.0330725 0.0354348 -0.0354348 0.0330725 -0.036616 0.0307102 -0.0377971 0.0307102 -0.0389783 0.0271667 -0.0401595 0.0259855 -0.0425218 0.0248044 -0.0425218 0.0212609 -0.0448841 0.0200797 -0.0448841 0.0188986 -0.0460653 0.0153551 -0.0484276 0.0129928 -0.0484276 0.0118116 -0.0484276 0.00826812 -0.0507899 0.00708696 -0.0496087 0.00354348 -0.0519711 0.00118116zm2.0564 -0.00118116l-2.0564 0.00118116 0 -2.00089 2.0564 -0.00118116 1.00044 1.00044 -1.00044 1.00044zm0 0l0 -2.00089 0.0519711 0.00118116 0.0496087 0.00354348 0.0507899 0.00708696 0.0484276 0.00826812 0.0484276 0.0118116 0.0484276 0.0129928 0.0460653 0.0153551 0.0448841 0.0188986 0.0448841 0.0200797 0.0425218 0.0212609 0.0425218 0.0248044 0.0401595 0.0259855 0.0389783 0.0271667 0.0377971 0.0307102 0.036616 0.0307102 0.0354348 0.0330725 0.0330725 0.0354348 0.0307102 0.036616 0.0307102 0.0377971 0.0271667 0.0389783 0.0259855 0.0401595 0.0248044 0.0425218 0.0212609 0.0425218 0.0200797 0.0448841 0.0188986 0.0448841 0.0153551 0.0460653 0.0129928 0.0484276 0.0118116 0.0484276 0.00826812 0.0484276 0.00708696 0.0507899 0.00354348 0.0496087 0.00118116 0.0519711 -0.00118116 0.0519711 -0.00354348 0.0496087 -0.00708696 0.0507899 -0.00826812 0.0484276 -0.0118116 0.0484276 -0.0129928 0.0484276 -0.0153551 0.0460653 -0.0188986 0.0448841 -0.0200797 0.0448841 -0.0212609 0.0425218 -0.0248044 0.0425218 -0.0259855 0.0401595 -0.0271667 0.0389783 -0.0307102 0.0377971 -0.0307102 0.036616 -0.0330725 0.0354348 -0.0354348 0.0330725 -0.036616 0.0307102 -0.0377971 0.0307102 -0.0389783 0.0271667 -0.0401595 0.0259855 -0.0425218 0.0248044 -0.0425218 0.0212609 -0.0448841 0.0200797 -0.0448841 0.0188986 -0.0460653 0.0153551 -0.0484276 0.0129928 -0.0484276 0.0118116 -0.0484276 0.00826812 -0.0507899 0.00708696 -0.0496087 0.00354348 -0.0519711 0.00118116zm1.00044 -4.4766l0 3.47616 -2.00089 0 0 -3.47616 1.13273 -0.990994 0.868153 0.990994zm0 0l-2.00089 0 0.00118116 -0.0519711 0.00354348 -0.0496087 0.00708696 -0.0507899 0.00826812 -0.0484276 0.0118116 -0.0484276 0.0129928 -0.0484276 0.0153551 -0.0460653 0.0188986 -0.0448841 0.0200797 -0.0448841 0.0212609 -0.0425218 0.0248044 -0.0425218 0.0259855 -0.0401595 0.0271667 -0.0389783 0.0307102 -0.0377971 0.0307102 -0.036616 0.0330725 -0.0354348 0.0354348 -0.0330725 0.036616 -0.0307102 0.0377971 -0.0307102 0.0389783 -0.0271667 0.0401595 -0.0259855 0.0425218 -0.0248044 0.0425218 -0.0212609 0.0448841 -0.0200797 0.0448841 -0.0188986 0.0460653 -0.0153551 0.0484276 -0.0129928 0.0484276 -0.0118116 0.0484276 -0.00826812 0.0507899 -0.00708696 0.0496087 -0.00354348 0.0519711 -0.00118116 0.0519711 0.00118116 0.0496087 0.00354348 0.0507899 0.00708696 0.0484276 0.00826812 0.0484276 0.0118116 0.0484276 0.0129928 0.0460653 0.0153551 0.0448841 0.0188986 0.0448841 0.0200797 0.0425218 0.0212609 0.0425218 0.0248044 0.0401595 0.0259855 0.0389783 0.0271667 0.0377971 0.0307102 0.036616 0.0307102 0.0354348 0.0330725 0.0330725 0.0354348 0.0307102 0.036616 0.0307102 0.0377971 0.0271667 0.0389783 0.0259855 0.0401595 0.0248044 0.0425218 0.0212609 0.0425218 0.0200797 0.0448841 0.0188986 0.0448841 0.0153551 0.0460653 0.0129928 0.0484276 0.0118116 0.0484276 0.00826812 0.0484276 0.00708696 0.0507899 0.00354348 0.0496087 0.00118116 0.0519711zm-3.99823 0.846892l0 -2.00089 0 0 0.137015 0.00118116 0.137015 0.00118116 0.134652 0.00118116 0.13229 0.00236232 0.13229 0.00236232 0.125203 0.00354348 0.128746 0.00236232 0.125203 0.00472464 0.120478 0.00354348 0.122841 0.00472464 0.119297 0.00472464 0.113391 0.0059058 0.109848 0.0059058 0.11221 0.0059058 0.106304 0.0059058 0.102761 0.0059058 0.103942 0.0059058 0.0980363 0.00826812 0.0850436 0.00472464 0.0968552 0.00708696 0.0874059 0.00708696 0.0755943 0.0059058 0.088587 0.00708696 0.0779566 0.00708696 0.0637827 0.0059058 0.0696885 0.0059058 0.066145 0.00708696 0.0626015 0.00708696 0.0507899 0.0059058 0.0437029 0.00472464 0.0543334 0.0059058 0.0460653 0.0059058 -0.26458 1.98199 -0.0248044 -0.00354348 -0.0283479 -0.00354348 -0.0460653 -0.00472464 -0.0507899 -0.0059058 -0.0484276 -0.00472464 -0.0519711 -0.00472464 -0.0578769 -0.0059058 -0.0708696 -0.0059058 -0.066145 -0.00708696 -0.0649638 -0.00472464 -0.0826812 -0.0059058 -0.0803189 -0.00708696 -0.0779566 -0.00472464 -0.0944928 -0.00708696 -0.0909494 -0.0059058 -0.0897682 -0.0059058 -0.0980363 -0.0059058 -0.10158 -0.0059058 -0.100399 -0.0059058 -0.107486 -0.00354348 -0.111029 -0.0059058 -0.107486 -0.00472464 -0.111029 -0.00472464 -0.118116 -0.00354348 -0.115754 -0.00472464 -0.116935 -0.00236232 -0.125203 -0.00354348 -0.122841 -0.00236232 -0.122841 -0.00236232 -0.125203 -0.00118116 -0.127565 -0.00118116 -0.127565 0.00118116 0 0zm0 -2.00089l0 2.00089 -0.0519711 -0.00118116 -0.0496087 -0.00354348 -0.0507899 -0.00708696 -0.0484276 -0.00826812 -0.0484276 -0.0118116 -0.0484276 -0.0129928 -0.0460653 -0.0153551 -0.0448841 -0.0188986 -0.0448841 -0.0200797 -0.0425218 -0.0212609 -0.0425218 -0.0248044 -0.0401595 -0.0259855 -0.0389783 -0.0271667 -0.0377971 -0.0307102 -0.036616 -0.0307102 -0.0354348 -0.0330725 -0.0330725 -0.0354348 -0.0307102 -0.036616 -0.0307102 -0.0377971 -0.0271667 -0.0389783 -0.0259855 -0.0401595 -0.0248044 -0.0425218 -0.0212609 -0.0425218 -0.0200797 -0.0448841 -0.0188986 -0.0448841 -0.0153551 -0.0460653 -0.0129928 -0.0484276 -0.0118116 -0.0484276 -0.00826812 -0.0484276 -0.00708696 -0.0507899 -0.00354348 -0.0496087 -0.00118116 -0.0519711 0.00118116 -0.0519711 0.00354348 -0.0496087 0.00708696 -0.0507899 0.00826812 -0.0484276 0.0118116 -0.0484276 0.0129928 -0.0484276 0.0153551 -0.0460653 0.0188986 -0.0448841 0.0200797 -0.0448841 0.0212609 -0.0425218 0.0248044 -0.0425218 0.0259855 -0.0401595 0.0271667 -0.0389783 0.0307102 -0.0377971 0.0307102 -0.036616 0.0330725 -0.0354348 0.0354348 -0.0330725 0.036616 -0.0307102 0.0377971 -0.0307102 0.0389783 -0.0271667 0.0401595 -0.0259855 0.0425218 -0.0248044 0.0425218 -0.0212609 0.0448841 -0.0200797 0.0448841 -0.0188986 0.0460653 -0.0153551 0.0484276 -0.0129928 0.0484276 -0.0118116 0.0484276 -0.00826812 0.0507899 -0.00708696 0.0496087 -0.00354348 0.0519711 -0.00118116zm-3.99941 6.13967l-2.00089 0 0 0 0.00708696 -0.34608 0.0200797 -0.340174 0.0342537 -0.330725 0.0460653 -0.321276 0.059058 -0.317732 0.073232 -0.309464 0.0874059 -0.300015 0.0992175 -0.288203 0.11221 -0.282297 0.127565 -0.274029 0.138196 -0.261036 0.151189 -0.25395 0.165362 -0.2445 0.175993 -0.230326 0.187805 -0.220877 0.199616 -0.207884 0.209065 -0.196073 0.222058 -0.185442 0.230326 -0.170087 0.238594 -0.158276 0.248044 -0.145283 0.25395 -0.13229 0.266942 -0.12166 0.271667 -0.106304 0.27521 -0.0921305 0.283479 -0.0815001 0.290565 -0.0685073 0.296471 -0.0555145 0.301196 -0.0425218 0.303558 -0.0307102 0.310645 -0.0188986 0.314189 -0.0059058 0 2.00089 -0.236232 0.00354348 -0.230326 0.0141739 -0.223239 0.0212609 -0.216152 0.0307102 -0.206703 0.0389783 -0.198435 0.0472464 -0.19371 0.0555145 -0.187805 0.0637827 -0.177174 0.0685073 -0.167725 0.0767754 -0.164181 0.0850436 -0.155913 0.0909494 -0.148826 0.0992175 -0.14292 0.106304 -0.13229 0.109848 -0.128746 0.120478 -0.12166 0.127565 -0.114573 0.133471 -0.109848 0.145283 -0.10158 0.147645 -0.0944928 0.159457 -0.0909494 0.171268 -0.0803189 0.174812 -0.0744131 0.187805 -0.0685073 0.198435 -0.059058 0.205522 -0.0519711 0.214971 -0.0425218 0.225602 -0.0342537 0.240957 -0.0248044 0.248044 -0.0153551 0.257493 -0.00472464 0.268123 0 0zm-2.00089 0l2.00089 0 -0.00118116 0.0519711 -0.00354348 0.0496087 -0.00708696 0.0507899 -0.00826812 0.0484276 -0.0118116 0.0484276 -0.0129928 0.0484276 -0.0153551 0.0460653 -0.0188986 0.0448841 -0.0200797 0.0448841 -0.0212609 0.0425218 -0.0248044 0.0425218 -0.0259855 0.0401595 -0.0271667 0.0389783 -0.0307102 0.0377971 -0.0307102 0.036616 -0.0330725 0.0354348 -0.0354348 0.0330725 -0.036616 0.0307102 -0.0377971 0.0307102 -0.0389783 0.0271667 -0.0401595 0.0259855 -0.0425218 0.0248044 -0.0425218 0.0212609 -0.0448841 0.0200797 -0.0448841 0.0188986 -0.0460653 0.0153551 -0.0484276 0.0129928 -0.0484276 0.0118116 -0.0484276 0.00826812 -0.0507899 0.00708696 -0.0496087 0.00354348 -0.0519711 0.00118116 -0.0519711 -0.00118116 -0.0496087 -0.00354348 -0.0507899 -0.00708696 -0.0484276 -0.00826812 -0.0484276 -0.0118116 -0.0484276 -0.0129928 -0.0460653 -0.0153551 -0.0448841 -0.0188986 -0.0448841 -0.0200797 -0.0425218 -0.0212609 -0.0425218 -0.0248044 -0.0401595 -0.0259855 -0.0389783 -0.0271667 -0.0377971 -0.0307102 -0.036616 -0.0307102 -0.0354348 -0.0330725 -0.0330725 -0.0354348 -0.0307102 -0.036616 -0.0307102 -0.0377971 -0.0271667 -0.0389783 -0.0259855 -0.0401595 -0.0248044 -0.0425218 -0.0212609 -0.0425218 -0.0200797 -0.0448841 -0.0188986 -0.0448841 -0.0153551 -0.0460653 -0.0129928 -0.0484276 -0.0118116 -0.0484276 -0.00826812 -0.0484276 -0.00708696 -0.0507899 -0.00354348 -0.0496087 -0.00118116 -0.0519711zm0 2.8655l0 -2.8655 2.00089 0 0 2.8655 -1.00044 1.00044 -1.00044 -1.00044zm0 0l2.00089 0 -0.00118116 0.0519711 -0.00354348 0.0496087 -0.00708696 0.0507899 -0.00826812 0.0484276 -0.0118116 0.0484276 -0.0129928 0.0484276 -0.0153551 0.0460653 -0.0188986 0.0448841 -0.0200797 0.0448841 -0.0212609 0.0425218 -0.0248044 0.0425218 -0.0259855 0.0401595 -0.0271667 0.0389783 -0.0307102 0.0377971 -0.0307102 0.036616 -0.0330725 0.0354348 -0.0354348 0.0330725 -0.036616 0.0307102 -0.0377971 0.0307102 -0.0389783 0.0271667 -0.0401595 0.0259855 -0.0425218 0.0248044 -0.0425218 0.0212609 -0.0448841 0.0200797 -0.0448841 0.0188986 -0.0460653 0.0153551 -0.0484276 0.0129928 -0.0484276 0.0118116 -0.0484276 0.00826812 -0.0507899 0.00708696 -0.0496087 0.00354348 -0.0519711 0.00118116 -0.0519711 -0.00118116 -0.0496087 -0.00354348 -0.0507899 -0.00708696 -0.0484276 -0.00826812 -0.0484276 -0.0118116 -0.0484276 -0.0129928 -0.0460653 -0.0153551 -0.0448841 -0.0188986 -0.0448841 -0.0200797 -0.0425218 -0.0212609 -0.0425218 -0.0248044 -0.0401595 -0.0259855 -0.0389783 -0.0271667 -0.0377971 -0.0307102 -0.036616 -0.0307102 -0.0354348 -0.0330725 -0.0330725 -0.0354348 -0.0307102 -0.036616 -0.0307102 -0.0377971 -0.0271667 -0.0389783 -0.0259855 -0.0401595 -0.0248044 -0.0425218 -0.0212609 -0.0425218 -0.0200797 -0.0448841 -0.0188986 -0.0448841 -0.0153551 -0.0460653 -0.0129928 -0.0484276 -0.0118116 -0.0484276 -0.00826812 -0.0484276 -0.00708696 -0.0507899 -0.00354348 -0.0496087 -0.00118116 -0.0519711zm-2.35523 -1.00044l3.35568 0 0 2.00089 -3.35568 0 -1.00044 -1.00044 1.00044 -1.00044zm0 0l0 2.00089 -0.0519711 -0.00118116 -0.0496087 -0.00354348 -0.0507899 -0.00708696 -0.0484276 -0.00826812 -0.0484276 -0.0118116 -0.0484276 -0.0129928 -0.0460653 -0.0153551 -0.0448841 -0.0188986 -0.0448841 -0.0200797 -0.0425218 -0.0212609 -0.0425218 -0.0248044 -0.0401595 -0.0259855 -0.0389783 -0.0271667 -0.0377971 -0.0307102 -0.036616 -0.0307102 -0.0354348 -0.0330725 -0.0330725 -0.0354348 -0.0307102 -0.036616 -0.0307102 -0.0377971 -0.0271667 -0.0389783 -0.0259855 -0.0401595 -0.0248044 -0.0425218 -0.0212609 -0.0425218 -0.0200797 -0.0448841 -0.0188986 -0.0448841 -0.0153551 -0.0460653 -0.0129928 -0.0484276 -0.0118116 -0.0484276 -0.00826812 -0.0484276 -0.00708696 -0.0507899 -0.00354348 -0.0496087 -0.00118116 -0.0519711 0.00118116 -0.0519711 0.00354348 -0.0496087 0.00708696 -0.0507899 0.00826812 -0.0484276 0.0118116 -0.0484276 0.0129928 -0.0484276 0.0153551 -0.0460653 0.0188986 -0.0448841 0.0200797 -0.0448841 0.0212609 -0.0425218 0.0248044 -0.0425218 0.0259855 -0.0401595 0.0271667 -0.0389783 0.0307102 -0.0377971 0.0307102 -0.036616 0.0330725 -0.0354348 0.0354348 -0.0330725 0.036616 -0.0307102 0.0377971 -0.0307102 0.0389783 -0.0271667 0.0401595 -0.0259855 0.0425218 -0.0248044 0.0425218 -0.0212609 0.0448841 -0.0200797 0.0448841 -0.0188986 0.0460653 -0.0153551 0.0484276 -0.0129928 0.0484276 -0.0118116 0.0484276 -0.00826812 0.0507899 -0.00708696 0.0496087 -0.00354348 0.0519711 -0.00118116zm-1.00044 4.88764l0 -3.8872 2.00089 0 0 3.8872 -1.00044 1.00044 -1.00044 -1.00044zm0 0l2.00089 0 -0.00118116 0.0519711 -0.00354348 0.0496087 -0.00708696 0.0507899 -0.00826812 0.0484276 -0.0118116 0.0484276 -0.0129928 0.0484276 -0.0153551 0.0460653 -0.0188986 0.0448841 -0.0200797 0.0448841 -0.0212609 0.0425218 -0.0248044 0.0425218 -0.0259855 0.0401595 -0.0271667 0.0389783 -0.0307102 0.0377971 -0.0307102 0.036616 -0.0330725 0.0354348 -0.0354348 0.0330725 -0.036616 0.0307102 -0.0377971 0.0307102 -0.0389783 0.0271667 -0.0401595 0.0259855 -0.0425218 0.0248044 -0.0425218 0.0212609 -0.0448841 0.0200797 -0.0448841 0.0188986 -0.0460653 0.0153551 -0.0484276 0.0129928 -0.0484276 0.0118116 -0.0484276 0.00826812 -0.0507899 0.00708696 -0.0496087 0.00354348 -0.0519711 0.00118116 -0.0519711 -0.00118116 -0.0496087 -0.00354348 -0.0507899 -0.00708696 -0.0484276 -0.00826812 -0.0484276 -0.0118116 -0.0484276 -0.0129928 -0.0460653 -0.0153551 -0.0448841 -0.0188986 -0.0448841 -0.0200797 -0.0425218 -0.0212609 -0.0425218 -0.0248044 -0.0401595 -0.0259855 -0.0389783 -0.0271667 -0.0377971 -0.0307102 -0.036616 -0.0307102 -0.0354348 -0.0330725 -0.0330725 -0.0354348 -0.0307102 -0.036616 -0.0307102 -0.0377971 -0.0271667 -0.0389783 -0.0259855 -0.0401595 -0.0248044 -0.0425218 -0.0212609 -0.0425218 -0.0200797 -0.0448841 -0.0188986 -0.0448841 -0.0153551 -0.0460653 -0.0129928 -0.0484276 -0.0118116 -0.0484276 -0.00826812 -0.0484276 -0.00708696 -0.0507899 -0.00354348 -0.0496087 -0.00118116 -0.0519711zm4.35612 1.00044l-3.35568 0 0 -2.00089 3.35568 0 1.00044 1.00044 -1.00044 1.00044zm0 0l0 -2.00089 0.0519711 0.00118116 0.0496087 0.00354348 0.0507899 0.00708696 0.0484276 0.00826812 0.0484276 0.0118116 0.0484276 0.0129928 0.0460653 0.0153551 0.0448841 0.0188986 0.0448841 0.0200797 0.0425218 0.0212609 0.0425218 0.0248044 0.0401595 0.0259855 0.0389783 0.0271667 0.0377971 0.0307102 0.036616 0.0307102 0.0354348 0.0330725 0.0330725 0.0354348 0.0307102 0.036616 0.0307102 0.0377971 0.0271667 0.0389783 0.0259855 0.0401595 0.0248044 0.0425218 0.0212609 0.0425218 0.0200797 0.0448841 0.0188986 0.0448841 0.0153551 0.0460653 0.0129928 0.0484276 0.0118116 0.0484276 0.00826812 0.0484276 0.00708696 0.0507899 0.00354348 0.0496087 0.00118116 0.0519711 -0.00118116 0.0519711 -0.00354348 0.0496087 -0.00708696 0.0507899 -0.00826812 0.0484276 -0.0118116 0.0484276 -0.0129928 0.0484276 -0.0153551 0.0460653 -0.0188986 0.0448841 -0.0200797 0.0448841 -0.0212609 0.0425218 -0.0248044 0.0425218 -0.0259855 0.0401595 -0.0271667 0.0389783 -0.0307102 0.0377971 -0.0307102 0.036616 -0.0330725 0.0354348 -0.0354348 0.0330725 -0.036616 0.0307102 -0.0377971 0.0307102 -0.0389783 0.0271667 -0.0401595 0.0259855 -0.0425218 0.0248044 -0.0425218 0.0212609 -0.0448841 0.0200797 -0.0448841 0.0188986 -0.0460653 0.0153551 -0.0484276 0.0129928 -0.0484276 0.0118116 -0.0484276 0.00826812 -0.0507899 0.00708696 -0.0496087 0.00354348 -0.0519711 0.00118116zm-1.00044 8.97328l0 -9.97372 2.00089 0 0 9.97372 -1.00044 1.00044 -1.00044 -1.00044zm0 0l2.00089 0 -0.00118116 0.0519711 -0.00354348 0.0496087 -0.00708696 0.0507899 -0.00826812 0.0484276 -0.0118116 0.0484276 -0.0129928 0.0484276 -0.0153551 0.0460653 -0.0188986 0.0448841 -0.0200797 0.0448841 -0.0212609 0.0425218 -0.0248044 0.0425218 -0.0259855 0.0401595 -0.0271667 0.0389783 -0.0307102 0.0377971 -0.0307102 0.036616 -0.0330725 0.0354348 -0.0354348 0.0330725 -0.036616 0.0307102 -0.0377971 0.0307102 -0.0389783 0.0271667 -0.0401595 0.0259855 -0.0425218 0.0248044 -0.0425218 0.0212609 -0.0448841 0.0200797 -0.0448841 0.0188986 -0.0460653 0.0153551 -0.0484276 0.0129928 -0.0484276 0.0118116 -0.0484276 0.00826812 -0.0507899 0.00708696 -0.0496087 0.00354348 -0.0519711 0.00118116 -0.0519711 -0.00118116 -0.0496087 -0.00354348 -0.0507899 -0.00708696 -0.0484276 -0.00826812 -0.0484276 -0.0118116 -0.0484276 -0.0129928 -0.0460653 -0.0153551 -0.0448841 -0.0188986 -0.0448841 -0.0200797 -0.0425218 -0.0212609 -0.0425218 -0.0248044 -0.0401595 -0.0259855 -0.0389783 -0.0271667 -0.0377971 -0.0307102 -0.036616 -0.0307102 -0.0354348 -0.0330725 -0.0330725 -0.0354348 -0.0307102 -0.036616 -0.0307102 -0.0377971 -0.0271667 -0.0389783 -0.0259855 -0.0401595 -0.0248044 -0.0425218 -0.0212609 -0.0425218 -0.0200797 -0.0448841 -0.0188986 -0.0448841 -0.0153551 -0.0460653 -0.0129928 -0.0484276 -0.0118116 -0.0484276 -0.00826812 -0.0484276 -0.00708696 -0.0507899 -0.00354348 -0.0496087 -0.00118116 -0.0519711zm5.01403 1.00044l-4.01358 0 0 -2.00089 4.01358 0 1.00044 1.00044 -1.00044 1.00044zm0 0l0 -2.00089 0.0519711 0.00118116 0.0496087 0.00354348 0.0507899 0.00708696 0.0484276 0.00826812 0.0484276 0.0118116 0.0484276 0.0129928 0.0460653 0.0153551 0.0448841 0.0188986 0.0448841 0.0200797 0.0425218 0.0212609 0.0425218 0.0248044 0.0401595 0.0259855 0.0389783 0.0271667 0.0377971 0.0307102 0.036616 0.0307102 0.0354348 0.0330725 0.0330725 0.0354348 0.0307102 0.036616 0.0307102 0.0377971 0.0271667 0.0389783 0.0259855 0.0401595 0.0248044 0.0425218 0.0212609 0.0425218 0.0200797 0.0448841 0.0188986 0.0448841 0.0153551 0.0460653 0.0129928 0.0484276 0.0118116 0.0484276 0.00826812 0.0484276 0.00708696 0.0507899 0.00354348 0.0496087 0.00118116 0.0519711 -0.00118116 0.0519711 -0.00354348 0.0496087 -0.00708696 0.0507899 -0.00826812 0.0484276 -0.0118116 0.0484276 -0.0129928 0.0484276 -0.0153551 0.0460653 -0.0188986 0.0448841 -0.0200797 0.0448841 -0.0212609 0.0425218 -0.0248044 0.0425218 -0.0259855 0.0401595 -0.0271667 0.0389783 -0.0307102 0.0377971 -0.0307102 0.036616 -0.0330725 0.0354348 -0.0354348 0.0330725 -0.036616 0.0307102 -0.0377971 0.0307102 -0.0389783 0.0271667 -0.0401595 0.0259855 -0.0425218 0.0248044 -0.0425218 0.0212609 -0.0448841 0.0200797 -0.0448841 0.0188986 -0.0460653 0.0153551 -0.0484276 0.0129928 -0.0484276 0.0118116 -0.0484276 0.00826812 -0.0507899 0.00708696 -0.0496087 0.00354348 -0.0519711 0.00118116zm1.00044 -10.9742l0 9.97372 -2.00089 0 0 -9.97372 1.00044 -1.00044 1.00044 1.00044zm0 0l-2.00089 0 0.00118116 -0.0519711 0.00354348 -0.0496087 0.00708696 -0.0507899 0.00826812 -0.0484276 0.0118116 -0.0484276 0.0129928 -0.0484276 0.0153551 -0.0460653 0.0188986 -0.0448841 0.0200797 -0.0448841 0.0212609 -0.0425218 0.0248044 -0.0425218 0.0259855 -0.0401595 0.0271667 -0.0389783 0.0307102 -0.0377971 0.0307102 -0.036616 0.0330725 -0.0354348 0.0354348 -0.0330725 0.036616 -0.0307102 0.0377971 -0.0307102 0.0389783 -0.0271667 0.0401595 -0.0259855 0.0425218 -0.0248044 0.0425218 -0.0212609 0.0448841 -0.0200797 0.0448841 -0.0188986 0.0460653 -0.0153551 0.0484276 -0.0129928 0.0484276 -0.0118116 0.0484276 -0.00826812 0.0507899 -0.00708696 0.0496087 -0.00354348 0.0519711 -0.00118116 0.0519711 0.00118116 0.0496087 0.00354348 0.0507899 0.00708696 0.0484276 0.00826812 0.0484276 0.0118116 0.0484276 0.0129928 0.0460653 0.0153551 0.0448841 0.0188986 0.0448841 0.0200797 0.0425218 0.0212609 0.0425218 0.0248044 0.0401595 0.0259855 0.0389783 0.0271667 0.0377971 0.0307102 0.036616 0.0307102 0.0354348 0.0330725 0.0330725 0.0354348 0.0307102 0.036616 0.0307102 0.0377971 0.0271667 0.0389783 0.0259855 0.0401595 0.0248044 0.0425218 0.0212609 0.0425218 0.0200797 0.0448841 0.0188986 0.0448841 0.0153551 0.0460653 0.0129928 0.0484276 0.0118116 0.0484276 0.00826812 0.0484276 0.00708696 0.0507899 0.00354348 0.0496087 0.00118116 0.0519711zm2.34697 1.00044l-3.34741 0 0 -2.00089 3.34741 0 0.992175 1.12801 -0.992175 0.872878zm0 0l0 -2.00089 0.0519711 0.00118116 0.0496087 0.00354348 0.0507899 0.00708696 0.0484276 0.00826812 0.0484276 0.0118116 0.0484276 0.0129928 0.0460653 0.0153551 0.0448841 0.0188986 0.0448841 0.0200797 0.0425218 0.0212609 0.0425218 0.0248044 0.0401595 0.0259855 0.0389783 0.0271667 0.0377971 0.0307102 0.036616 0.0307102 0.0354348 0.0330725 0.0330725 0.0354348 0.0307102 0.036616 0.0307102 0.0377971 0.0271667 0.0389783 0.0259855 0.0401595 0.0248044 0.0425218 0.0212609 0.0425218 0.0200797 0.0448841 0.0188986 0.0448841 0.0153551 0.0460653 0.0129928 0.0484276 0.0118116 0.0484276 0.00826812 0.0484276 0.00708696 0.0507899 0.00354348 0.0496087 0.00118116 0.0519711 -0.00118116 0.0519711 -0.00354348 0.0496087 -0.00708696 0.0507899 -0.00826812 0.0484276 -0.0118116 0.0484276 -0.0129928 0.0484276 -0.0153551 0.0460653 -0.0188986 0.0448841 -0.0200797 0.0448841 -0.0212609 0.0425218 -0.0248044 0.0425218 -0.0259855 0.0401595 -0.0271667 0.0389783 -0.0307102 0.0377971 -0.0307102 0.036616 -0.0330725 0.0354348 -0.0354348 0.0330725 -0.036616 0.0307102 -0.0377971 0.0307102 -0.0389783 0.0271667 -0.0401595 0.0259855 -0.0425218 0.0248044 -0.0425218 0.0212609 -0.0448841 0.0200797 -0.0448841 0.0188986 -0.0460653 0.0153551 -0.0484276 0.0129928 -0.0484276 0.0118116 -0.0484276 0.00826812 -0.0507899 0.00708696 -0.0496087 0.00354348 -0.0519711 0.00118116z"/>
   </g>
  </g>
  <g>
   <g>
    <path class="fil2" d="M-269.244 1964.16l0 -0.777204c-1.03352,1.20478 -2.05876,2.16152 -3.05566,2.89739 -1.00989,0.760667 -2.10483,1.31463 -3.28481,1.7056 -1.17998,0.377971 -2.46508,0.582312 -3.85295,0.582312 -1.83907,0 -3.5612,-0.390964 -5.12387,-1.18116 -1.57449,-0.764211 -2.93755,-1.88749 -4.07737,-3.34859 -1.15517,-1.41621 -2.02569,-3.12889 -2.61627,-5.09435 -0.597667,-1.95718 -0.887052,-4.08209 -0.887052,-6.35228 0,-4.82622 1.17998,-8.57759 3.52458,-11.2718 2.35523,-2.6895 5.44869,-4.02894 9.2851,-4.02894 2.23476,0 4.10217,0.387421 5.62351,1.13982 1.53433,0.768935 3.02023,1.94183 4.46479,3.49505l0 -11.3569c0,-1.57921 0.321276,-2.75919 0.955559,-3.58837 0.627196,-0.826812 1.53078,-1.21305 2.67769,-1.21305 1.17171,0 2.0753,0.377971 2.70604,1.12683 0.639008,0.737044 0.952015,1.83907 0.952015,3.27536l0 33.9903c0,1.46936 -0.344899,2.57611 -1.01698,3.31316 -0.69216,0.719327 -1.55441,1.09494 -2.64107,1.09494 -1.05005,0 -1.91584,-0.375609 -2.59619,-1.13982 -0.690979,-0.752399 -1.03706,-1.86033 -1.03706,-3.26827zm-15.1543 -11.3167l0 0c0,2.08002 0.317732,3.86594 0.965008,5.32703 0.655544,1.47763 1.54968,2.56784 2.6647,3.32497 1.12801,0.744131 2.35996,1.12683 3.69939,1.12683 1.35125,0 2.59147,-0.382696 3.71475,-1.0784 1.11974,-0.700428 2.01506,-1.76583 2.68596,-3.23047 0.659088,-1.48118 1.00044,-3.28835 1.00044,-5.46995 0,-2.06231 -0.341355,-3.81633 -1.00044,-5.28451 -0.670899,-1.4859 -1.56622,-2.62926 -2.70958,-3.40647 -1.14454,-0.790196 -2.38949,-1.16817 -3.74428,-1.16817 -1.41149,0 -2.67297,0.402776 -3.78444,1.1847 -1.1032,0.81382 -1.96545,1.97726 -2.5832,3.47497 -0.607116,1.48472 -0.908312,3.22221 -0.908312,5.19947z"/>
    <path class="fil2" d="M-232.699 1954.79l-15.0728 0c0.0129928,1.7493 0.367341,3.29189 1.04651,4.62306 0.69216,1.35007 1.59457,2.35523 2.75092,3.01432 1.1351,0.695704 2.38831,1.01344 3.76436,1.01344 0.923668,0 1.76583,-0.0897682 2.5265,-0.304739 0.757124,-0.212609 1.4859,-0.578769 2.21349,-1.0217 0.715783,-0.44766 1.37487,-0.952015 1.98553,-1.49299 0.594124,-0.517348 1.36778,-1.23786 2.33161,-2.13318 0.394508,-0.329544 0.960283,-0.524435 1.69733,-0.524435 0.797283,0 1.41975,0.216152 1.92057,0.642551 0.480732,0.435848 0.73232,1.07013 0.73232,1.84379 0,0.71224 -0.272848,1.51779 -0.817363,2.45327 -0.545696,0.940204 -1.36778,1.83198 -2.4828,2.67769 -1.08667,0.850436 -2.46981,1.55913 -4.14705,2.15207 -1.65126,0.550421 -3.57183,0.831537 -5.74516,0.831537 -4.95142,0 -8.78547,-1.42448 -11.5517,-4.23328 -2.74265,-2.81943 -4.11871,-6.63576 -4.11871,-11.4915 0,-2.27846 0.341355,-4.39746 1.01698,-6.33456 0.69216,-1.94537 1.66426,-3.63797 2.96708,-5.01403 1.30164,-1.39968 2.90093,-2.45799 4.80614,-3.22221 1.89931,-0.737044 4.00768,-1.0784 6.33574,-1.0784 3.00605,0 5.58216,0.609479 7.72715,1.89576 2.16507,1.25321 3.79153,2.90093 4.86284,4.91599 1.07013,2.00207 1.59811,4.07264 1.59811,6.16093 0,1.9371 -0.556327,3.20685 -1.66426,3.7679 -1.11029,0.565776 -2.68123,0.858704 -4.6833,0.858704zm-15.0728 -4.37029l0 0 13.966 0c-0.174812,-2.65761 -0.890595,-4.59471 -2.14026,-5.91289 -1.22486,-1.30991 -2.85605,-1.96899 -4.86284,-1.96899 -1.9123,0 -3.49978,0.659088 -4.72819,1.97726 -1.23313,1.33825 -1.99026,3.29189 -2.23476,5.90462z"/>
    <path class="fil2" d="M-195.043 1958.49c0,2.12018 -0.516167,3.93917 -1.5426,5.44515 -1.04178,1.53787 -2.56666,2.68596 -4.59353,3.45017 -2.0186,0.790196 -4.4766,1.18116 -7.37753,1.18116 -2.75919,0 -5.14395,-0.419312 -7.12476,-1.26975 -1.98199,-0.846892 -3.43481,-1.91348 -4.37502,-3.16669 -0.931936,-1.27683 -1.40794,-2.56312 -1.40794,-3.84113 0,-0.846892 0.297652,-1.56268 0.903588,-2.16507 0.605935,-0.605935 1.35479,-0.907131 2.29854,-0.907131 0.802008,0 1.41621,0.194891 1.84379,0.598848 0.439392,0.36616 0.862247,0.947291 1.25321,1.65481 0.79374,1.37133 1.73394,2.38476 2.83242,3.06865 1.09848,0.67208 2.61981,1.0217 4.51203,1.0217 1.5426,0 2.79581,-0.349624 3.79743,-1.0217 0.988631,-0.695704 1.47645,-1.48118 1.47645,-2.33515 0,-1.3796 -0.516167,-2.38476 -1.53315,-2.98715 -1.02997,-0.622472 -2.71903,-1.23313 -5.07899,-1.78237 -2.64107,-0.659088 -4.80614,-1.33471 -6.46567,-2.06231 -1.66898,-0.737044 -2.99897,-1.68197 -4.00413,-2.87376 -0.985088,-1.19179 -1.48944,-2.64816 -1.48944,-4.37384 0,-1.53078 0.44766,-3.00723 1.3796,-4.39155 0.910675,-1.36188 2.282,-2.445 4.0691,-3.27181 1.81544,-0.829175 3.97579,-1.22368 6.51056,-1.22368 1.99026,0 3.78798,0.194891 5.38727,0.617747 1.59575,0.399232 2.91392,0.965008 3.98051,1.67252 1.06541,0.687435 1.87096,1.46582 2.42847,2.30799 0.54924,0.842167 0.826812,1.66426 0.826812,2.47689 0,0.883508 -0.292928,1.62882 -0.878783,2.1568 -0.598848,0.574044 -1.44456,0.859885 -2.53123,0.859885 -0.79374,0 -1.46464,-0.207884 -2.02687,-0.67208 -0.553964,-0.439392 -1.1847,-1.11856 -1.89576,-2.03868 -0.59058,-0.744131 -1.28274,-1.35479 -2.06703,-1.80718 -0.785472,-0.446479 -1.86387,-0.679167 -3.22339,-0.679167 -1.39495,0 -2.54304,0.317732 -3.46671,0.907131 -0.928392,0.585856 -1.37605,1.32644 -1.37605,2.20995 0,0.805551 0.337812,1.4611 1.00162,1.96899 0.687435,0.52916 1.59102,0.97682 2.7462,1.30282 1.13628,0.329544 2.73557,0.737044 4.75299,1.24849 2.37295,0.585856 4.34195,1.27802 5.84793,2.07648 1.52133,0.820907 2.6647,1.77292 3.4419,2.86431 0.790196,1.11856 1.16817,2.38004 1.16817,3.77971z"/>
    <path class="fil2" d="M-184.601 1933.66c-1.09375,0 -2.00561,-0.357892 -2.75447,-0.988631 -0.768935,-0.670899 -1.14691,-1.59929 -1.14691,-2.80408 0,-1.09375 0.381515,-2.00915 1.17525,-2.70604 0.777204,-0.695704 1.67252,-1.05714 2.72612,-1.05714 0.985088,0 1.86387,0.324819 2.64107,0.955559 0.777204,0.655544 1.15517,1.5922 1.15517,2.80762 0,1.1847 -0.36616,2.10837 -1.12683,2.78754 -0.752399,0.647276 -1.63118,1.00517 -2.66942,1.00517zm3.79625 7.9433l0 0 0 22.279c0,1.5296 -0.36616,2.70604 -1.09375,3.48679 -0.737044,0.806733 -1.66426,1.1977 -2.80053,1.1977 -1.13037,0 -2.04577,-0.390964 -2.75447,-1.21778 -0.699247,-0.805551 -1.04887,-1.96545 -1.04887,-3.46671l0 -22.0464c0,-1.52606 0.349624,-2.68242 1.04887,-3.42655 0.708696,-0.79374 1.6241,-1.17171 2.75447,-1.17171 1.13628,0 2.06349,0.377971 2.80053,1.17171 0.727595,0.744131 1.09375,1.80599 1.09375,3.19386z"/>
    <path class="fil2" d="M-144.49 1942.87l0 22.4007c0,2.54304 -0.261036,4.75653 -0.822088,6.58851 -0.52916,1.86741 -1.41267,3.35686 -2.61627,4.58527 -1.20951,1.1847 -2.77218,2.09538 -4.73291,2.6895 -1.95364,0.565776 -4.37856,0.858704 -7.26414,0.858704 -2.66115,0 -5.03765,-0.36616 -7.12476,-1.09848 -2.08357,-0.752399 -3.6864,-1.72922 -4.84276,-2.89739 -1.10675,-1.17171 -1.67607,-2.37177 -1.67607,-3.62616 0,-0.955559 0.326,-1.71268 0.960283,-2.29027 0.63074,-0.602392 1.40322,-0.907131 2.31507,-0.907131 1.12801,0 2.11664,0.504356 2.96235,1.50952 0.4075,0.504356 0.833899,1.01344 1.28156,1.5426 0.455928,0.499631 0.931936,0.952015 1.47763,1.31345 0.532703,0.374428 1.1847,0.643732 1.92057,0.822088 0.757124,0.174812 1.6241,0.268123 2.60092,0.268123 1.99734,0 3.55175,-0.268123 4.6585,-0.820907 1.09848,-0.553964 1.87214,-1.33944 2.32334,-2.32807 0.432305,-1.00162 0.675624,-2.0753 0.75358,-3.19386 0.0767754,-1.15163 0.138196,-2.97534 0.18308,-5.51011 -1.18825,1.64063 -2.55957,2.92928 -4.12225,3.77617 -1.54614,0.87524 -3.38993,1.32644 -5.54319,1.32644 -2.57139,0 -4.82504,-0.682711 -6.7586,-1.99734 -1.9371,-1.30282 -3.42182,-3.15842 -4.44353,-5.54319 -1.04533,-2.37177 -1.56268,-5.10261 -1.56268,-8.22796 0,-2.28673 0.321276,-4.37384 0.943747,-6.24952 0.639008,-1.8556 1.52252,-3.43481 2.70604,-4.70811 1.16462,-1.29455 2.51469,-2.2383 4.04547,-2.91392 1.51779,-0.622472 3.18677,-0.948472 5.01285,-0.948472 2.1816,0 4.07737,0.403957 5.68493,1.25794 1.59102,0.825631 3.07692,2.14026 4.45652,3.91437l0 -1.01698c0,-1.35125 0.329544,-2.38476 0.988631,-3.11708 0.670899,-0.737044 1.49653,-1.09021 2.54304,-1.09021 1.48472,0 2.46981,0.484276 2.97062,1.44456 0.479551,0.972095 0.720508,2.34815 0.720508,4.18721zm-22.3287 9.79773l0 0c0,3.10527 0.683892,5.4735 2.04341,7.06098 1.3666,1.58276 3.12535,2.40484 5.2975,2.40484 1.28156,0 2.49461,-0.34608 3.62144,-1.05005 1.13628,-0.69216 2.07648,-1.71386 2.78754,-3.09228 0.725233,-1.38786 1.08312,-3.06865 1.08312,-5.02584 0,-3.15724 -0.703972,-5.5987 -2.08357,-7.34091 -1.38786,-1.76229 -3.21512,-2.64107 -5.46995,-2.64107 -2.2005,0 -3.97461,0.838624 -5.28924,2.5395 -1.33471,1.65953 -1.99026,4.03248 -1.99026,7.14484z"/>
    <path class="fil2" d="M-129.687 1941.49l0 0.931936c1.35952,-1.79064 2.83597,-3.10409 4.44707,-3.9309 1.61937,-0.846892 3.45489,-1.25675 5.55027,-1.25675 2.03041,0 3.85413,0.439392 5.45342,1.30991 1.59102,0.89532 2.78754,2.14026 3.58482,3.76436 0.504356,0.940204 0.842167,1.96545 0.980363,3.03558 0.154732,1.11502 0.232689,2.48989 0.232689,4.19076l0 14.344c0,1.5296 -0.359073,2.70604 -1.05832,3.48679 -0.708696,0.806733 -1.63118,1.1977 -2.75565,1.1977 -1.15872,0 -2.07884,-0.390964 -2.79935,-1.21778 -0.715783,-0.805551 -1.07367,-1.96545 -1.07367,-3.46671l0 -12.8345c0,-2.54304 -0.350805,-4.50022 -1.06186,-5.85147 -0.695704,-1.33471 -2.11664,-1.99734 -4.22029,-1.99734 -1.37133,0 -2.62808,0.389783 -3.75609,1.22486 -1.1351,0.789015 -1.96073,1.9123 -2.47807,3.34032 -0.374428,1.18352 -0.569319,3.32497 -0.569319,6.44559l0 9.67252c0,1.55913 -0.362616,2.73911 -1.08667,3.50332 -0.73232,0.790196 -1.65953,1.18116 -2.80762,1.18116 -1.11502,0 -2.02687,-0.390964 -2.73911,-1.21778 -0.724051,-0.805551 -1.06541,-1.96545 -1.06541,-3.46671l0 -22.279c0,-1.47291 0.313008,-2.56784 0.960283,-3.28008 0.639008,-0.73232 1.51307,-1.08549 2.621,-1.08549 0.670899,0 1.28865,0.153551 1.82607,0.455928 0.540972,0.349624 0.996899,0.829175 1.31109,1.45991 0.341355,0.639008 0.504356,1.42448 0.504356,2.33988z"/>
    <path class="fil2" d="M-80.2504 1954.79l-15.0681 0c0.0129928,1.7493 0.354348,3.29189 1.05005,4.62306 0.682711,1.35007 1.60283,2.35523 2.73793,3.01432 1.14809,0.695704 2.40602,1.01344 3.77735,1.01344 0.918943,0 1.76583,-0.0897682 2.52178,-0.304739 0.770117,-0.212609 1.49417,-0.578769 2.23476,-1.0217 0.699247,-0.44766 1.3666,-0.952015 1.95246,-1.49299 0.618928,-0.517348 1.38786,-1.23786 2.34815,-2.13318 0.399232,-0.329544 0.968552,-0.524435 1.7056,-0.524435 0.789015,0 1.41975,0.216152 1.90403,0.642551 0.504356,0.435848 0.740588,1.07013 0.740588,1.84379 0,0.71224 -0.26458,1.51779 -0.810276,2.45327 -0.548058,0.940204 -1.37487,1.83198 -2.48162,2.67769 -1.09021,0.850436 -2.46981,1.55913 -4.15532,2.15207 -1.65126,0.550421 -3.5801,0.831537 -5.7369,0.831537 -4.95261,0 -8.79374,-1.42448 -11.5529,-4.23328 -2.73793,-2.81943 -4.12107,-6.63576 -4.12107,-11.4915 0,-2.27846 0.344899,-4.39746 1.01698,-6.33456 0.670899,-1.94537 1.67961,-3.63797 2.97062,-5.01403 1.30164,-1.39968 2.89266,-2.45799 4.79315,-3.22221 1.89694,-0.737044 4.0124,-1.0784 6.3322,-1.0784 2.99779,0 5.5987,0.609479 7.74369,1.89576 2.1568,1.25321 3.77617,2.90093 4.86166,4.91599 1.05832,2.00207 1.59102,4.07264 1.59102,6.16093 0,1.9371 -0.561051,3.20685 -1.6678,3.7679 -1.09848,0.565776 -2.65761,0.858704 -4.68803,0.858704zm-15.0681 -4.37029l0 0 13.9696 0c-0.191348,-2.65761 -0.898863,-4.59471 -2.13199,-5.91289 -1.22486,-1.30991 -2.85723,-1.96899 -4.87583,-1.96899 -1.9123,0 -3.48679,0.659088 -4.727,1.97726 -1.21305,1.33825 -1.97018,3.29189 -2.23476,5.90462z"/>
    <path class="fil2" d="M-46.2684 1964.16l0 -0.777204c-1.04533,1.20478 -2.05876,2.16152 -3.06747,2.89739 -1.01816,0.760667 -2.11191,1.31463 -3.27181,1.7056 -1.17998,0.377971 -2.46272,0.582312 -3.85767,0.582312 -1.84734,0 -3.55647,-0.390964 -5.13569,-1.18116 -1.56622,-0.764211 -2.92101,-1.88749 -4.07737,-3.34859 -1.14691,-1.41621 -2.01034,-3.12889 -2.60446,-5.09435 -0.602392,-1.95718 -0.89532,-4.08209 -0.89532,-6.35228 0,-4.82622 1.18116,-8.57759 3.52813,-11.2718 2.36823,-2.6895 5.4735,-4.02894 9.2981,-4.02894 2.22176,0 4.0939,0.387421 5.60815,1.13982 1.53433,0.768935 3.02259,1.94183 4.47542,3.49505l0 -11.3569c0,-1.57921 0.313008,-2.75919 0.944928,-3.58837 0.629559,-0.826812 1.5296,-1.21305 2.69659,-1.21305 1.17289,0 2.05522,0.377971 2.69895,1.12683 0.622472,0.737044 0.943747,1.83907 0.943747,3.27536l0 33.9903c0,1.46936 -0.342537,2.57611 -1.0217,3.31316 -0.670899,0.719327 -1.56268,1.09494 -2.621,1.09494 -1.06541,0 -1.92411,-0.375609 -2.61981,-1.13982 -0.680348,-0.752399 -1.0217,-1.86033 -1.0217,-3.26827zm-15.1614 -11.3167l0 0c0,2.08002 0.329544,3.86594 0.972095,5.32703 0.650819,1.47763 1.5426,2.56784 2.66942,3.32497 1.12801,0.744131 2.35996,1.12683 3.69113,1.12683 1.35952,0 2.59619,-0.382696 3.72302,-1.0784 1.09848,-0.700428 2.00207,-1.76583 2.66942,-3.23047 0.670899,-1.48118 1.01344,-3.28835 1.01344,-5.46995 0,-2.06231 -0.342537,-3.81633 -1.01344,-5.28451 -0.667356,-1.4859 -1.57094,-2.62926 -2.71431,-3.40647 -1.12683,-0.790196 -2.38004,-1.16817 -3.73129,-1.16817 -1.41621,0 -2.66942,0.402776 -3.79271,1.1847 -1.10675,0.81382 -1.96073,1.97726 -2.56312,3.47497 -0.622472,1.48472 -0.923668,3.22221 -0.923668,5.19947z"/>
    <path class="fil2" d="M-9.67016 1930.17l0 11.7561c1.45283,-1.47645 2.92219,-2.63635 4.42345,-3.43009 1.52606,-0.817363 3.37812,-1.20478 5.59516,-1.20478 2.55957,0 4.80969,0.61066 6.73498,1.81544 1.92884,1.20478 3.43363,2.97416 4.47542,5.30223 1.08667,2.28673 1.61228,5.01285 1.61228,8.18308 0,2.33161 -0.301196,4.47187 -0.883508,6.40898 -0.602392,1.94537 -1.4611,3.65451 -2.59619,5.066 -1.12328,1.43275 -2.49461,2.55603 -4.10571,3.32024 -1.6111,0.790196 -3.37694,1.18116 -5.31877,1.18116 -1.20006,0 -2.29854,-0.147645 -3.34859,-0.419312 -1.03706,-0.269305 -1.93238,-0.667356 -2.67769,-1.13155 -0.727595,-0.464196 -1.34298,-0.928392 -1.87568,-1.40794 -0.504356,-0.500812 -1.19179,-1.2414 -2.03514,-2.22649l0 0.777204c0,1.44928 -0.353167,2.55131 -1.05714,3.31316 -0.683892,0.719327 -1.56268,1.09494 -2.66234,1.09494 -1.06541,0 -1.95246,-0.375609 -2.60328,-1.09494 -0.647276,-0.761849 -0.968552,-1.86387 -0.968552,-3.31316l0 -33.6607c0,-1.54968 0.308283,-2.72966 0.943747,-3.52695 0.639008,-0.818544 1.50952,-1.20478 2.62808,-1.20478 1.1977,0 2.11664,0.377971 2.76037,1.15517 0.629559,0.75358 0.959102,1.85206 0.959102,3.24701zm0.36616 22.8933l0 0c0,3.07692 0.700428,5.42861 2.10837,7.07751 1.39613,1.64772 3.22339,2.48162 5.51366,2.48162 1.92884,0 3.60136,-0.850436 5.00576,-2.53123 1.41975,-1.70087 2.11546,-4.10571 2.11546,-7.2476 0,-2.05049 -0.304739,-3.77971 -0.878783,-5.26089 -0.585856,-1.45637 -1.42802,-2.59973 -2.49461,-3.41355 -1.06186,-0.781928 -2.32334,-1.1847 -3.74782,-1.1847 -1.46464,0 -2.76746,0.402776 -3.92263,1.1847 -1.14336,0.81382 -2.05876,1.97726 -2.72612,3.4986 -0.643732,1.52606 -0.973276,3.32142 -0.973276,5.39554z"/>
    <path class="fil2" d="M25.7115 1969.52l0.696885 -1.72568 -9.4859 -23.8701c-0.582312,-1.38314 -0.870515,-2.35169 -0.870515,-2.99542 0,-0.642551 0.174812,-1.27329 0.512624,-1.83907 0.329544,-0.565776 0.789015,-1.00044 1.38786,-1.34652 0.602392,-0.337812 1.20478,-0.504356 1.85915,-0.504356 1.11147,0 1.9371,0.353167 2.50288,1.03352 0.569319,0.727595 1.07013,1.73749 1.50125,3.04739l6.53064 18.9706 6.16684 -17.6477c0.497269,-1.43275 0.953197,-2.54776 1.32762,-3.35331 0.389783,-0.79374 0.829175,-1.3477 1.26975,-1.64063 0.438211,-0.268123 1.05714,-0.409863 1.87923,-0.409863 0.570501,0 1.13982,0.153551 1.66898,0.455928 0.544515,0.321276 0.960283,0.735863 1.23668,1.26502 0.317732,0.52916 0.44766,1.07367 0.44766,1.65599 -0.073232,0.349624 -0.20316,0.842167 -0.357892,1.51779 -0.171268,0.663812 -0.390964,1.34652 -0.627196,2.0186l-10.0588 26.295c-0.872878,2.32807 -1.70678,4.14233 -2.55013,5.44869 -0.809095,1.33471 -1.90403,2.3198 -3.27063,3.04385 -1.37605,0.687435 -3.21512,1.0536 -5.52665,1.0536 -2.25838,0 -3.95098,-0.248044 -5.07427,-0.720508 -1.13864,-0.504356 -1.69615,-1.38314 -1.69615,-2.6895 0,-0.887052 0.259855,-1.56268 0.797283,-2.04695 0.537428,-0.492544 1.33471,-0.724051 2.39303,-0.724051 0.406319,0 0.812638,0.0566957 1.21187,0.166544 0.484276,0.118116 0.898863,0.154732 1.27447,0.154732 0.874059,0 1.57803,-0.118116 2.08239,-0.374428 0.512624,-0.263399 0.965008,-0.724051 1.36306,-1.3796 0.4075,-0.642551 0.883508,-1.60283 1.40794,-2.85959z"/>
   </g>
   <g>
    <path class="fil2" d="M168.356 1937.9l1.83198 0 0 -2.30681c0,-2.40957 0.300015,-4.33368 0.943747,-5.73335 0.585856,-1.43629 1.62764,-2.45799 3.09228,-3.10881 1.45637,-0.668537 3.44308,-0.985088 6.01447,-0.985088 4.4766,0 6.73852,1.10202 6.73852,3.30843 0,0.71224 -0.252768,1.31818 -0.724051,1.84261 -0.464196,0.50908 -1.00871,0.761849 -1.65244,0.761849 -0.317732,0 -0.838624,-0.0578769 -1.57094,-0.187805 -0.715783,-0.10158 -1.34298,-0.154732 -1.84734,-0.154732 -1.40794,0 -2.29499,0.4075 -2.69305,1.2166 -0.390964,0.838624 -0.587037,2.00679 -0.587037,3.5045l0 1.84261 1.89694 0c2.93755,0 4.40337,0.89532 4.40337,2.67769 0,1.24494 -0.374428,2.03868 -1.17289,2.38831 -0.780747,0.329544 -1.84734,0.512624 -3.23047,0.512624l-1.89694 0 0 20.4034c0,1.50952 -0.364979,2.66942 -1.07367,3.4797 -0.740588,0.81382 -1.66898,1.20478 -2.82415,1.20478 -1.09021,0 -2.00207,-0.390964 -2.73439,-1.20478 -0.715783,-0.810276 -1.08194,-1.97018 -1.08194,-3.4797l0 -20.4034 -2.12491 0c-1.14691,0 -2.01034,-0.256312 -2.63635,-0.800827 -0.634283,-0.500812 -0.935479,-1.17289 -0.935479,-2.01034 0,-1.84734 1.29337,-2.76746 3.86476,-2.76746z"/>
    <path class="fil2" d="M195.897 1957.42l0 6.46213c0,1.55913 -0.36616,2.73911 -1.09021,3.50332 -0.748856,0.790196 -1.68552,1.18116 -2.81707,1.18116 -1.09021,0 -2.01742,-0.390964 -2.71785,-1.1977 -0.740588,-0.780747 -1.09021,-1.95718 -1.09021,-3.48679l0 -21.457c0,-3.46671 1.23668,-5.18766 3.75137,-5.18766 1.26975,0 2.20523,0.394508 2.75919,1.20833 0.577587,0.797283 0.887052,2.01034 0.943747,3.57655 0.928392,-1.56622 1.87214,-2.77927 2.84069,-3.57655 0.968552,-0.81382 2.25484,-1.20833 3.88247,-1.20833 1.6111,0 3.18205,0.394508 4.71165,1.20833 1.5296,0.797283 2.27846,1.87923 2.27846,3.19858 0,0.972095 -0.309464,1.71623 -0.960283,2.35996 -0.650819,0.589399 -1.34298,0.890595 -2.11546,0.890595 -0.277573,0 -0.952015,-0.163 -2.03514,-0.487819 -1.08194,-0.377971 -2.02687,-0.545696 -2.88085,-0.545696 -1.11502,0 -2.04223,0.289384 -2.75919,0.900044 -0.715783,0.585856 -1.25321,1.46464 -1.67607,2.62808 -0.390964,1.16344 -0.667356,2.56784 -0.822088,4.1754 -0.146464,1.59929 -0.20316,3.56474 -0.20316,5.85501z"/>
    <path class="fil2" d="M233.642 1954.79l-15.0799 0c0.0401595,1.7493 0.374428,3.29189 1.06541,4.62306 0.675624,1.35007 1.58748,2.35523 2.74265,3.01432 1.13155,0.695704 2.38476,1.01344 3.75255,1.01344 0.928392,0 1.78237,-0.0897682 2.5395,-0.304739 0.772479,-0.212609 1.49771,-0.578769 2.21349,-1.0217 0.73232,-0.44766 1.37487,-0.952015 1.97726,-1.49299 0.61066,-0.517348 1.39968,-1.23786 2.35996,-2.13318 0.390964,-0.329544 0.960283,-0.524435 1.6926,-0.524435 0.790196,0 1.42448,0.216152 1.89694,0.642551 0.479551,0.435848 0.748856,1.07013 0.748856,1.84379 0,0.71224 -0.269305,1.51779 -0.822088,2.45327 -0.562232,0.940204 -1.38314,1.83198 -2.44973,2.67769 -1.10675,0.850436 -2.50642,1.55913 -4.1754,2.15207 -1.6678,0.550421 -3.58837,0.831537 -5.7369,0.831537 -4.97269,0 -8.81382,-1.42448 -11.5565,-4.23328 -2.75092,-2.81943 -4.11871,-6.63576 -4.11871,-11.4915 0,-2.27846 0.334268,-4.39746 1.02525,-6.33456 0.659088,-1.94537 1.65244,-3.63797 2.95526,-5.01403 1.29337,-1.39968 2.89621,-2.45799 4.80969,-3.22221 1.87923,-0.737044 3.99468,-1.0784 6.33102,-1.0784 3.00369,0 5.55854,0.609479 7.72361,1.89576 2.16507,1.25321 3.78444,2.90093 4.85811,4.91599 1.06659,2.00207 1.61937,4.07264 1.61937,6.16093 0,1.9371 -0.552783,3.20685 -1.68433,3.7679 -1.12328,0.565776 -2.65289,0.858704 -4.68803,0.858704zm-15.0799 -4.37029l0 0 13.9814 0c-0.20316,-2.65761 -0.878783,-4.59471 -2.10719,-5.91289 -1.26148,-1.30991 -2.88085,-1.96899 -4.89119,-1.96899 -1.92884,0 -3.49151,0.659088 -4.74472,1.97726 -1.22132,1.33825 -1.96191,3.29189 -2.2383,5.90462z"/>
    <path class="fil2" d="M268.011 1954.79l-15.0893 0c0.0330725,1.7493 0.382696,3.29189 1.06659,4.62306 0.683892,1.35007 1.6111,2.35523 2.73439,3.01432 1.14809,0.695704 2.40957,1.01344 3.77617,1.01344 0.920124,0 1.74221,-0.0897682 2.51469,-0.304739 0.765392,-0.212609 1.5296,-0.578769 2.21349,-1.0217 0.716964,-0.44766 1.37605,-0.952015 1.98553,-1.49299 0.602392,-0.517348 1.40794,-1.23786 2.35287,-2.13318 0.398051,-0.329544 0.952015,-0.524435 1.6926,-0.524435 0.789015,0 1.43983,0.216152 1.92057,0.642551 0.479551,0.435848 0.724051,1.07013 0.724051,1.84379 0,0.71224 -0.268123,1.51779 -0.797283,2.45327 -0.553964,0.940204 -1.38314,1.83198 -2.49107,2.67769 -1.09021,0.850436 -2.48162,1.55913 -4.14233,2.15207 -1.6678,0.550421 -3.58837,0.831537 -5.74516,0.831537 -4.93961,0 -8.79728,-1.42448 -11.5482,-4.23328 -2.75092,-2.81943 -4.11871,-6.63576 -4.11871,-11.4915 0,-2.27846 0.342537,-4.39746 1.00162,-6.33456 0.683892,-1.94537 1.66898,-3.63797 2.97062,-5.01403 1.30164,-1.39968 2.89739,-2.45799 4.80969,-3.22221 1.90403,-0.737044 4.00413,-1.0784 6.31567,-1.0784 3.00251,0 5.5987,0.609479 7.76377,1.89576 2.14026,1.25321 3.75963,2.90093 4.84276,4.91599 1.07367,2.00207 1.59457,4.07264 1.59457,6.16093 0,1.9371 -0.545696,3.20685 -1.66071,3.7679 -1.11383,0.565776 -2.66115,0.858704 -4.68684,0.858704zm-15.0893 -4.37029l0 0 13.9743 0c-0.187805,-2.65761 -0.89532,-4.59471 -2.12491,-5.91289 -1.22841,-1.30991 -2.83951,-1.96899 -4.85811,-1.96899 -1.92884,0 -3.49151,0.659088 -4.73645,1.97726 -1.21305,1.33825 -1.9938,3.29189 -2.25484,5.90462z"/>
    <path class="fil2" d="M287.21 1941.57l0 0.890595c1.47291,-1.7741 2.97062,-3.08873 4.52503,-3.91437 1.56268,-0.853979 3.32851,-1.25794 5.31404,-1.25794 2.35996,0 4.54156,0.61066 6.54363,1.82371 1.9938,1.22841 3.56474,3.01905 4.73645,5.36247 1.14691,2.33634 1.72449,5.12742 1.72449,8.36616 0,2.36114 -0.341355,4.53329 -1.00871,6.52709 -0.659088,1.99026 -1.57921,3.65451 -2.75092,4.99749 -1.16344,1.34652 -2.53123,2.38831 -4.11753,3.11354 -1.58748,0.724051 -3.30489,1.08667 -5.12742,1.08667 -2.21349,0 -4.06083,-0.452384 -5.55027,-1.32762 -1.51425,-0.887052 -2.93755,-2.18515 -4.28879,-3.88602l0 11.5612c0,3.37694 -1.25321,5.07781 -3.67931,5.07781 -1.47291,0 -2.42492,-0.439392 -2.90447,-1.30164 -0.472464,-0.883508 -0.69216,-2.16979 -0.69216,-3.83405l0 -33.2532c0,-1.47291 0.316551,-2.56784 0.952015,-3.28008 0.634283,-0.73232 1.51425,-1.08549 2.64462,-1.08549 1.08312,0 1.96191,0.353167 2.6458,1.11029 0.699247,0.740588 1.03352,1.81072 1.03352,3.22339zm15.1129 11.1903l0 0c0,-2.04341 -0.309464,-3.79271 -0.93666,-5.23372 -0.626015,-1.47291 -1.48118,-2.59973 -2.57139,-3.37694 -1.09848,-0.790196 -2.3198,-1.16817 -3.66987,-1.16817 -2.10837,0 -3.90728,0.838624 -5.38019,2.5395 -1.4481,1.65953 -2.19696,4.13406 -2.19696,7.37753 0,3.05212 0.73232,5.44397 2.19696,7.14956 1.43275,1.72095 3.23047,2.57139 5.38019,2.57139 1.30164,0 2.46508,-0.382696 3.54821,-1.12683 1.10675,-0.757124 1.97726,-1.84734 2.63635,-3.33323 0.650819,-1.51307 0.993356,-3.30016 0.993356,-5.39908z"/>
    <path class="fil2" d="M320.162 1933.66c-1.09848,0 -2.02687,-0.357892 -2.77455,-0.988631 -0.748856,-0.670899 -1.14809,-1.59929 -1.14809,-2.80408 0,-1.09375 0.399232,-2.00915 1.18825,-2.70604 0.757124,-0.695704 1.67607,-1.05714 2.73439,-1.05714 0.97682,0 1.86387,0.324819 2.63753,0.955559 0.764211,0.655544 1.15517,1.5922 1.15517,2.80762 0,1.1847 -0.374428,2.10837 -1.13982,2.78754 -0.748856,0.647276 -1.65126,1.00517 -2.65289,1.00517zm3.79271 7.9433l0 0 0 22.279c0,1.5296 -0.374428,2.70604 -1.11502,3.48679 -0.724051,0.806733 -1.63591,1.1977 -2.79108,1.1977 -1.13155,0 -2.04341,-0.390964 -2.74265,-1.21778 -0.700428,-0.805551 -1.06659,-1.96545 -1.06659,-3.46671l0 -22.0464c0,-1.52606 0.36616,-2.68242 1.06659,-3.42655 0.699247,-0.79374 1.6111,-1.17171 2.74265,-1.17171 1.15517,0 2.06703,0.377971 2.79108,1.17171 0.740588,0.744131 1.11502,1.80599 1.11502,3.19386z"/>
    <path class="fil2" d="M351.112 1965.04l-6.81175 -11.1868 -4.18249 3.96397 0 6.11959c0,1.47645 -0.36616,2.61627 -1.13982,3.42655 -0.805551,0.81382 -1.71741,1.20478 -2.70131,1.20478 -1.20478,0 -2.11664,-0.390964 -2.79226,-1.1977 -0.707515,-0.780747 -1.02525,-1.95718 -1.02525,-3.48679l0 -32.854c0,-1.71741 0.309464,-3.02377 0.960283,-3.91082 0.683892,-0.900044 1.62764,-1.35125 2.85723,-1.35125 1.17998,0 2.11546,0.386239 2.81589,1.21305 0.690979,0.829175 1.02525,2.00915 1.02525,3.58837l0 18.6907 8.68389 -9.09966c1.08194,-1.12328 1.88749,-1.90403 2.44146,-2.30326 0.569319,-0.422855 1.26148,-0.617747 2.06703,-0.617747 0.968552,0 1.75757,0.28466 2.41665,0.923668 0.627196,0.605935 0.952015,1.3666 0.952015,2.29499 0,1.13037 -1.04887,2.62808 -3.13244,4.50849l-4.11044 3.75137 7.91023 12.4282c0.602392,0.927211 1.01698,1.62291 1.26975,2.09892 0.236232,0.46774 0.374428,0.944928 0.374428,1.35952 0,1.23313 -0.324819,2.18869 -0.993356,2.91392 -0.674443,0.687435 -1.57803,1.05005 -2.65289,1.05005 -0.943747,0 -1.65126,-0.26458 -2.18042,-0.77366 -0.496087,-0.496087 -1.17998,-1.4292 -2.05168,-2.75447z"/>
    <path class="fil2" d="M370.172 1968.57c-1.16344,0 -2.17334,-0.375609 -3.01078,-1.13982 -0.85516,-0.745312 -1.30164,-1.79891 -1.30164,-3.1537 0,-1.14809 0.422855,-2.14026 1.23668,-2.96235 0.81382,-0.826812 1.8308,-1.24967 2.99424,-1.24967 1.17998,0 2.19814,0.422855 3.03558,1.23313 0.838624,0.822088 1.26148,1.80245 1.26148,2.97889 0,1.33471 -0.422855,2.4013 -1.26148,3.1537 -0.837443,0.764211 -1.81426,1.13982 -2.95408,1.13982z"/>
    <path class="fil2" d="M410.816 1959.02c0,0.95674 -0.28466,1.97726 -0.870515,3.06865 -0.570501,1.11856 -1.44928,2.14381 -2.61273,3.13244 -1.17998,0.985088 -2.67769,1.7871 -4.45179,2.37295 -1.79064,0.61066 -3.8246,0.911856 -6.04636,0.911856 -4.76126,0 -8.48073,-1.38786 -11.1502,-4.16713 -2.66942,-2.771 -4.0124,-6.48575 -4.0124,-11.1572 0,-3.16669 0.61066,-5.96959 1.8308,-8.3827 1.21305,-2.43319 3.00369,-4.31005 5.32349,-5.62823 2.31862,-1.32644 5.06954,-1.97726 8.29293,-1.97726 1.98553,0 3.81633,0.279935 5.48531,0.870515 1.67607,0.565776 3.08401,1.30991 4.24863,2.24657 1.15517,0.911856 2.03396,1.89576 2.64462,2.94227 0.617747,1.06068 0.918943,2.02215 0.918943,2.934 0,0.935479 -0.341355,1.70796 -1.04178,2.33515 -0.682711,0.642551 -1.51307,0.955559 -2.48989,0.955559 -0.642551,0 -1.18825,-0.170087 -1.59457,-0.483095 -0.440573,-0.330725 -0.89532,-0.859885 -1.42448,-1.60402 -0.928392,-1.42802 -1.92057,-2.50997 -2.95408,-3.22221 -1.02643,-0.705153 -2.33634,-1.06304 -3.90728,-1.06304 -2.26192,0 -4.10099,0.900044 -5.50893,2.66588 -1.38432,1.7871 -2.09184,4.20729 -2.09184,7.2913 0,1.45755 0.178355,2.78754 0.552783,4.00059 0.334268,1.20478 0.871696,2.2383 1.53905,3.12063 0.667356,0.830356 1.5048,1.50244 2.44973,1.93356 0.960283,0.442935 2.03396,0.659088 3.17378,0.659088 1.5296,0 2.86431,-0.370884 3.97106,-1.05832 1.09139,-0.752399 2.06703,-1.81072 2.91392,-3.29189 0.479551,-0.862247 0.985088,-1.5426 1.52133,-2.00561 0.553964,-0.512624 1.21305,-0.745312 2.00207,-0.745312 0.960283,0 1.71741,0.334268 2.35169,1.05832 0.61066,0.73232 0.93666,1.48118 0.93666,2.28673z"/>
    <path class="fil2" d="M446.381 1952.9c0,2.27492 -0.324819,4.39864 -1.05832,6.33102 -0.715783,1.95718 -1.75757,3.62262 -3.11708,5.00103 -1.35007,1.39613 -2.95408,2.47807 -4.84984,3.23992 -1.88868,0.719327 -4.00413,1.09494 -6.36409,1.09494 -2.30326,0 -4.4199,-0.375609 -6.28377,-1.13982 -1.84615,-0.745312 -3.49151,-1.81899 -4.85811,-3.20685 -1.33471,-1.42802 -2.4013,-3.07574 -3.09228,-4.98922 -0.69216,-1.89931 -1.05832,-4.02776 -1.05832,-6.33102 0,-2.33634 0.36616,-4.45534 1.09848,-6.43024 0.69216,-1.90757 1.71741,-3.58364 3.03558,-4.95142 1.35125,-1.3796 2.97889,-2.42965 4.87465,-3.17023 1.90521,-0.757124 3.98878,-1.11029 6.28377,-1.11029 2.35996,0 4.45888,0.377971 6.36409,1.12683 1.90403,0.740588 3.5234,1.81544 4.88292,3.22221 1.36778,1.38432 2.37649,3.03204 3.08401,4.96087 0.733501,1.92529 1.05832,4.04429 1.05832,6.35228zm-7.72361 0l0 0c0,-3.14543 -0.707515,-5.58689 -2.08357,-7.34564 -1.37487,-1.74103 -3.22221,-2.62454 -5.58216,-2.62454 -1.48944,0 -2.81589,0.379153 -3.98051,1.1599 -1.13864,0.790196 -2.02569,1.95364 -2.65289,3.46789 -0.617747,1.52488 -0.927211,3.30725 -0.927211,5.34239 0,2.01388 0.309464,3.77263 0.927211,5.26916 0.602392,1.51425 1.48944,2.64107 2.621,3.45489 1.13982,0.805551 2.48162,1.17998 4.0124,1.17998 2.35996,0 4.20729,-0.845711 5.58216,-2.59973 1.37605,-1.77883 2.08357,-4.22029 2.08357,-7.3043z"/>
    <path class="fil2" d="M478.104 1953.45l0 10.2584c0,1.6241 -0.36616,2.83597 -1.09021,3.64152 -0.748856,0.826812 -1.71741,1.21778 -2.92219,1.21778 -1.16344,0 -2.10719,-0.390964 -2.84069,-1.21778 -0.724051,-0.805551 -1.09848,-2.01742 -1.09848,-3.64152l0 -12.2734c0,-1.95718 -0.0566957,-3.43009 -0.178355,-4.52857 -0.131109,-1.06541 -0.489,-1.95718 -1.08312,-2.62808 -0.577587,-0.700428 -1.49653,-1.02525 -2.76628,-1.02525 -2.5076,0 -4.18367,0.853979 -4.97269,2.58792 -0.797283,1.73276 -1.20478,4.21911 -1.20478,7.44249l0 10.4249c0,1.60283 -0.357892,2.80408 -1.09021,3.62616 -0.725233,0.81382 -1.68552,1.23313 -2.8655,1.23313 -1.15517,0 -2.10719,-0.419312 -2.87258,-1.23313 -0.740588,-0.822088 -1.10675,-2.02333 -1.10675,-3.62616l0 -22.0629c0,-1.4292 0.317732,-2.5395 0.993356,-3.28008 0.682711,-0.748856 1.56149,-1.12683 2.63635,-1.12683 1.07486,0 1.95364,0.353167 2.63753,1.03352 0.731138,0.727595 1.07367,1.71268 1.07367,2.93755l0 0.715783c1.33471,-1.58276 2.76746,-2.75447 4.29706,-3.50332 1.51425,-0.744131 3.22339,-1.13155 5.07072,-1.13155 1.95246,0 3.61317,0.387421 4.99631,1.15636 1.40794,0.768935 2.54776,1.94065 3.45135,3.47852 1.29337,-1.55323 2.70131,-2.72612 4.19076,-3.49505 1.47291,-0.752399 3.12535,-1.13982 4.93253,-1.13982 2.10719,0 3.9309,0.403957 5.45224,1.23313 1.5296,0.850436 2.65289,2.02687 3.41001,3.55647 0.675624,1.39968 0.992175,3.586 0.992175,6.58379l0 15.0444c0,1.6241 -0.381515,2.83597 -1.11383,3.64152 -0.716964,0.826812 -1.67725,1.21778 -2.88912,1.21778 -1.15636,0 -2.13318,-0.419312 -2.85723,-1.23313 -0.764211,-0.822088 -1.13155,-2.02333 -1.13155,-3.62616l0 -12.9691c0,-1.63945 -0.0566957,-2.97416 -0.211428,-3.97933 -0.163,-0.988631 -0.520892,-1.8308 -1.13155,-2.49815 -0.634283,-0.683892 -1.56976,-1.00871 -2.83124,-1.00871 -1.02643,0 -1.97018,0.304739 -2.88912,0.898863 -0.903588,0.581131 -1.64418,1.40322 -2.14853,2.44146 -0.562232,1.27802 -0.838624,3.57301 -0.838624,6.85664z"/>
   </g>
   <g>
    <path class="fil2" d="M107.603 1917.36c-0.146464,-0.484276 -0.301196,-0.988631 -0.464196,-1.47291 2.5643,-0.239776 4.3136,-3.35331 3.06039,-5.64831 -1.16344,-2.58792 -5.15813,-2.90565 -6.69246,-0.532703 -1.64418,2.10837 -0.357892,5.42389 2.15326,6.09951 0.171268,0.517348 0.301196,1.07013 0.464196,1.59102 -3.87066,0.277573 -7.82637,1.13155 -11.0982,3.3415 0.342537,0.915399 0.675624,1.90049 1.00989,2.83597 6.58379,-2.88085 13.9271,-2.2631 20.8617,-1.56622 0.243319,-0.911856 0.471283,-1.83198 0.699247,-2.74738 -3.14071,-1.39968 -6.57552,-1.92057 -9.9938,-1.90049z"/>
    <path class="fil2" d="M146.684 1927.96c-1.03352,0.520892 -1.22959,1.79064 -1.17998,2.83597 -1.15636,1.11502 -0.602392,2.8277 -0.725233,4.22029 -0.259855,0.792559 -1.2036,0.890595 -1.86269,1.19533 -0.911856,-1.40322 -1.87214,-2.72612 -3.10881,-3.86121l0.0236232 -0.0649638c-1.33471,-1.23313 -2.76628,-2.35996 -4.27226,-3.34859 -1.20478,1.29337 -2.4828,2.5832 -3.64624,3.92263 2.30326,2.54304 4.44353,5.30223 6.3322,8.15828 1.30991,2.18987 2.34342,4.52148 3.26355,6.90152 1.94419,-1.01344 3.88129,-2.05876 5.83493,-3.07574 -1.03352,-2.38122 -2.20523,-4.71283 -3.45844,-6.98775 0.853979,-0.464196 2.02569,-0.910675 2.14853,-2.04695 0.0968552,-1.24849 -0.163,-2.59619 0.561051,-3.68995 1.52133,0.972095 3.81751,-0.118116 3.83287,-1.9501 0.20316,-1.92057 -2.18042,-3.27536 -3.7431,-2.20877z"/>
    <path class="fil2" d="M136.111 1942.13c-2.53831,-4.22383 -5.28924,-8.42758 -9.04178,-11.6663 -4.30533,-3.80924 -9.92884,-6.38063 -15.7638,-6.35228 -7.35981,-0.0649638 -14.8224,1.09966 -21.6022,4.05256 -6.38772,2.8088 -11.9545,7.83818 -14.7621,14.2956 -2.71785,5.80304 -2.66942,12.5132 -1.4481,18.7025 6.77041,1.68906 13.6625,3.19386 20.6384,3.51159 6.90861,0.214971 13.829,0.377971 20.6904,-0.565776 9.40794,-1.25675 18.6364,-4.21556 26.856,-9.03352 0,0 -1.14691,-6.18928 -5.56681,-12.9443zm-33.2886 8.34962l0 0c-1.27802,1.84379 -3.11708,3.27654 -5.21719,4.08209 -3.97106,1.47645 -8.78075,0.459471 -11.6356,-2.6895 -1.98671,-2.18987 -3.16669,-5.12742 -2.95526,-8.11457 0.163,-3.71121 2.45799,-7.17791 5.72036,-8.91186 2.47453,-1.33471 5.46877,-1.57449 8.19489,-0.81382 1.13155,0.276392 2.16625,0.81382 3.14189,1.45755 2.0186,1.41621 3.50805,3.51159 4.19076,5.89163 0.92603,3.04031 0.322457,6.45386 -1.43983,9.09848zm28.5522 -6.72198l0 0c-0.471283,3.19031 -3.50687,5.86446 -6.75506,5.66012 -1.87923,0.163 -3.6864,-0.719327 -4.96442,-2.05404 -0.918943,-1.13982 -1.6678,-2.43792 -1.79773,-3.95216 -0.439392,-3.21039 1.8308,-6.54245 4.98922,-7.30784 1.38314,-0.390964 2.84778,-0.174812 4.22265,0.158276 2.95526,1.03824 4.89945,4.40337 4.30533,7.49564z"/>
    <path class="fil2" d="M75.0226 1932.71c-2.75092,1.65599 -5.01285,4.00413 -6.90743,6.58025 -0.552783,-1.03352 -0.715783,-2.24657 -1.43275,-3.16551 -0.406319,-0.537428 -1.14691,-0.314189 -1.70796,-0.314189 -0.740588,0.0614203 -1.44928,-0.133471 -2.14144,-0.336631 0.81382,-1.12801 0.594124,-2.86904 -0.634283,-3.62262 -1.31818,-0.931936 -3.36158,-0.12166 -3.71947,1.45283 -0.545696,1.71386 1.27802,3.44308 2.96235,2.98715 0.903588,1.32644 2.52296,1.11502 3.89901,1.15163 0.609479,1.08194 1.09021,2.25365 1.88749,3.22693 -1.48118,2.9092 -2.31862,6.1692 -2.39303,9.42802 1.90521,0.797283 3.80924,1.60283 5.70382,2.4013 0.088587,-2.0753 0.341355,-4.11871 0.642551,-6.12432 0.635464,-4.44825 3.19031,-8.27639 6.2259,-11.4384 -0.748856,-0.79374 -1.59457,-1.48118 -2.38476,-2.22649z"/>
    <path class="fil2" d="M119.322 1966.03c-6.99129,1.52606 -14.1916,1.97844 -21.3259,1.66426 -4.82622,-0.226783 -9.66071,-0.690979 -14.3629,-1.73631 -3.34505,-0.680348 -6.62513,-1.65244 -9.92884,-2.59619 0.537428,4.1943 2.2383,8.21497 4.66322,11.6817 2.86431,4.02539 6.69836,7.70707 11.4573,9.20478 3.71121,1.01344 8.13938,2.27492 15.7862,2.14026 6.3133,-0.0968552 12.5144,-0.898863 18.0493,-3.27536 3.57183,-1.52606 6.90861,-3.61317 9.79773,-6.23771 2.4828,-2.3446 4.43526,-5.27034 5.76997,-8.39096 1.30282,-2.97534 2.4828,-8.28466 2.36114,-11.0238 -6.84483,3.89429 -14.4704,7.27241 -22.2672,8.56932z"/>
   </g>
  </g>
 </g>
</svg>
